<?xml version="1.0" encoding="utf-8"?>
<!-- Generator: Adobe Illustrator 24.0.1, SVG Export Plug-In . SVG Version: 6.00 Build 0)  -->
<svg version="1.1" id="Capa_1" xmlns="http://www.w3.org/2000/svg" xmlns:xlink="http://www.w3.org/1999/xlink" x="0px" y="0px"
	 viewBox="0 0 694 148" style="enable-background:new 0 0 694 148;" xml:space="preserve">
<style type="text/css">
	.st0{fill:#242222;}
</style>
<g>
	<g>
		<g>
			<path class="st0" d="M69.5,46.3c-2.3,5.4-4.8,11.4-5.1,12.4c-0.1,0.3,0.3-0.5,1.3-3c0.3-0.8,1.6-4,3.2-7.5
				c1.4-3.4,2.9-6.5,2.9-6.5c0.1,0-1.2,3.2-2.6,6.6c-1.4,3.3-2.7,6.8-2.9,7.1c-0.1,0.6-0.1,0.2-0.3,1c1.7-4.3,3.4-7.9,4-9.2
				c0.3-0.7,0.2-0.1,0,0.8c-3.2,8.5-5.8,15.5-8.7,23.1l-0.2,0.6c-2.5,7-7.3,18.4-9.7,24.7c-0.3,1.3-4.3,1.2-5.3-2.1
				c-5.5-12.1-6.4-38.1-6.3-45.3c0,0-0.1-0.1-0.1-0.1c-0.1-0.2-0.2-0.1-0.5,0.8c-0.5,1.6-0.2,1.5,0.1,0.5c0.1-0.5,0.1-0.5,0.1-0.3
				c-0.1,0.3-0.2,0.6-0.3,1c-0.2,0.8,0.1-0.1-0.1,0.7c-0.1,0.4-0.2,0.8-0.1,0.5c-0.2,0.5-0.5,1.1-0.6,1.7v0.1v0.1v-0.1
				c-0.3,0.8-0.5,1.4-0.7,2.3c-0.1,0.3-0.1,0.6-0.2,0.9v0.2c-0.2,0.7-0.4,1.3-0.6,2l-0.1,0.1c-0.5,1.3-0.6,1.2-0.2-0.3
				c0.2-0.7,0.1-1.1,0.1-1s-0.8,2.3-1.4,4.8c-0.7,2.5-1.8,7.5-1.7,7.1c0.1-0.4,0.6-4.2,0.6-4.4c0-0.3,0.1-0.3,0.1-0.3
				s0.3-0.5,0.5-1.4c0.3-1.4,0.4-1.5,0-0.4c-0.1,0.3-0.3,0.8-0.4,1.1l0.3-1.2c0.2-0.7,0.4-1.3,0.5-1.4c0.1-0.1,0.3-0.3,0.3-0.9
				c0-0.8,0.3-1.6,0.3-1.2c0,0.1,1.2-3.3,1.4-4.3c0.2-1.1,1.8-6,2.6-8v-0.5c-1.5,4.6-2.6,8-2.6,7.7c0-0.3-0.3,0.7-0.7,2.3
				c-0.5,1.7-1,3-1.1,3.3s-0.4,1-0.6,1.7c-0.3,1-0.2,1,0,0.5c0.2-0.5,0.1-0.1-0.3,1.5c-0.5,1.8-0.7,2.2-0.8,2.2
				c-0.1,0-0.1,0.1-0.1,0.3c-0.2,1-0.9,4.7-1.8,9.1v-0.1c0.1-0.4,0.2-0.8,0.3-1.1c0.4-1.7,1.2-3.4,0.3,0.1c0,0.1-0.1,0.5-0.2,0.7
				c0.1,0,0.1,0.1,0.1,0.1c0.1-0.2,0.1-0.5,0.2-0.8v-0.1c0.3-1.4,0.6-2.2,0.5-1.8c-0.2,1.4,0.1,1,0.5-0.3c0.3-1.1,0.2-1.3,0-1.2
				c-0.3,0.1-0.3,0.1,0.1-0.5c0.1-0.3,0.3-0.5,0.3-0.5c0,0.1,0.1,0.1,0.1,0.1c0.2-1.1,1.3-5.9,1.4-6.5c0.1-0.2,0.2-0.5,0.3-1
				l0.1-0.5c0.2-0.8,0.4-1.1,0.4-1.1V61c-0.1,0.4-0.2,0.8-0.3,1.2c-0.1,0.3-1.8,7.3-2,7.9c-0.1,0.5-0.3,1-0.4,1.6
				c-0.2,0.9-0.5,1.8-0.7,2.7c-0.1,0.4-0.3,0.8-0.3,1.2c-0.3,1.3-0.6,2.6-0.9,3.9c-0.4,1.7-0.8,3.6-1.2,5.3c-0.1,0.5-0.2,1-0.3,1.4
				c-0.1,0.3-0.2,0.6-0.2,0.8c-0.1,0.4-0.2,0.7-0.2,0.9v0.3c0,0-0.1,0-0.1-0.1c-0.1,0.3-0.1,0.5-0.1,0.8v-0.9c0-1.4,0.2-2.4,0.9-4.5
				c0.2-0.7,0.2-0.8,0-0.3C30,83.6,30,83.5,30,83c0-0.3-0.3,1-0.8,3.1c-0.1,0.7-0.3,1.4-0.4,2.3c0.1,0.6-0.1,0.6-0.3,1.2
				c-0.6,2.9-1.1,4.8-1.5,6.2c-0.1,0.5,1.9,0,1.6,0.2c-1,0.6-1.4,1-1.4,1.1c0,0.5,2.6-0.8,2.3-0.5c-0.8,0.8-4.2,3.1-4.7,3.1
				c-2.9,0-3.1-2.2-2.4-4c0.1-1.1,0.5-1.9,1-3.6c4.1-13.4,5.3-19.2,13.8-48.4c1.1-2.9,5.9-0.2,5.4,3.3c0.1,12.5,1.1,38.1,6.4,46.6
				v-0.1c0.2-0.5,0.1-0.6,0.3-1.2c0.1-0.4,0.3-0.8,0.2-0.4c0.2-0.5,0.5-1.2,0.7-1.7c0-0.1,0.1-0.1,0.1-0.1v-0.1l-0.1,0.1
				c0.3-0.7,0.5-1.4,0.8-2.1c0.1-0.3,0.2-0.5,0.3-0.8c0-0.1,0.1-0.2,0.1-0.3c0.1-0.3,0.5-1.6,0.7-1.9h0.1c0.6-1.3,0.7-1.2,0.1,0.2
				c-0.3,0.6-0.3,1.1-0.2,1c0.1-0.1,1-2.2,1.9-4.5c1-2.3,1.6-4,1.4-3.6c-0.1,0.3-0.2,0.9-0.2,1.1c0,0.3-0.1,0.3-0.2,0.3
				s-0.3,0.5-0.6,1.4c-0.5,1.4-0.5,1.4-0.1,0.3c0.1-0.1,0.4-0.9,0.5-1l-0.4,1.2c-0.3,0.6-0.6,1.2-0.7,1.3c-0.1,0.1-0.2,0.3-0.3,0.8
				c-0.1,0.7-0.4,1.5-0.4,1.2c0-0.1-1.3,3.1-1.6,4.1c-0.2,0.6-1.3,3.1-2.2,5.3c0,0.1,0.1,0.2,0.1,0.3c1.2-2.9,2-4.9,1.9-4.7
				c-0.1,0.3,0.3-0.7,0.9-2.1c0.6-1.6,1.2-2.9,1.3-3.1c0.1-0.2,0.5-1,0.8-1.6c0.3-0.9,0.4-1,0.1-0.5c-0.2,0.5-0.1,0.1,0.5-1.4
				c0.7-1.7,0.8-2.1,1-2.1c0.1,0,0.1-0.1,0.1-0.2c0-0.1,0.3-1,0.6-1.8c0.3-0.9,0.6-1.5,0.7-1.5s0.1-0.1,0.1-0.3
				c0-0.2,0.5-1.6,1.8-4.7c0.6-1.6,1.6-4.1,2.7-6.9c2.7-6.7,7-17.3,7.3-17.9c0.8-1.8,1.2-2.7,1.2-2.7c0,0-0.1,0.4-0.2,0.8
				c-0.2,0.5-0.2,0.5,0.1-0.2c0.1-0.3-1.1,2.6-2.3,5.5c-1.2,3-2.5,6.1-2.5,6.2c0,0.1,1.4-3.2,2.8-6.6c1.6-3.8,2.9-6.6,3.4-7.7
				c0.5-1.1,0.8-1.5,0.8-1.5C72.7,39.2,71.1,42.7,69.5,46.3z M30.5,80.5c-0.1,0.1-0.1,0.4-0.1,0.6c0,0.2-0.1,0.5-0.1,0.6
				c0,0.3,0.1,0,0.2-0.6c0.1-0.5,0.1-0.8,0.1-0.8S30.5,80.5,30.5,80.5z M30.8,79.2c0,0.2,0.1-0.1,0.3-0.7c0.4-1.3,0.3-1-0.1,1
				c-0.4,1.8-0.4,2.1-0.2,1.4c0.4-1.2,0.9-3.6,0.8-4v-0.1C31.3,77.5,31.1,78.3,30.8,79.2z M33.1,69.9c0,0.1-0.1,0.1-0.1,0.2
				c-0.1,0.5-0.2,0.7-0.1,0.3c0-0.1,0.1-0.2,0.1-0.3C32.9,70,33,69.9,33.1,69.9c-0.1-0.2,0.1-0.3,0.1-0.4v-0.1
				C33.1,69.4,33.1,69.6,33.1,69.9z M33.5,64.4c-0.1,0.3-0.1,0.5,0,0.5s0.1-0.1,0.2-0.4s0.1-0.5,0.1-0.5S33.6,64.1,33.5,64.4z
				 M37.6,54.7c0,0.1-0.1,0.2-0.1,0.3c-0.2,0.7-0.3,1.2-0.4,1.6S36.9,57.1,37,57c0.1-0.1,0.5-1.3,1-2.7c0.4-1.3,0.7-2.3,0.6-2.3
				C38.5,52.1,38,53.3,37.6,54.7z M38.2,52c-0.1,0.1-0.2,0.4-0.3,0.6c0,0.1-0.1,0.3-0.1,0.4s-0.1,0.3-0.1,0.3
				c-0.1,0.5,0,0.2,0.2-0.5C38.1,52.3,38.3,51.9,38.2,52C38.3,51.9,38.2,51.9,38.2,52z M43.4,82.2c0.5,3.4,2.1,8.4,2.3,9.1
				c0.3,1.1-1.3-6.4-2.2-10.6c-1.1-6.3-2.1-18.1-2.1-18.1C41.9,67.6,42,74.6,43.4,82.2z M47.1,92.7c-0.2-1.6-1.2-4.3-1.8-7.3
				c-0.9-4.2-1.4-8.7-1.4-9.4C43.1,75.6,45.1,88.7,47.1,92.7z M49.1,93.9c0,0.1,0.1,0.2,0.1,0.3c0.1-0.3,0.2-1.2,0.2-1.2
				S49.2,93.7,49.1,93.9z M50.6,89.8c-0.5,1.4-0.8,2.3-0.8,2.2c0.1-0.1,0.5-1.3,1.1-2.7c0-0.1,0.1-0.1,0.1-0.2
				c0.3-0.6,0.4-1.2,0.5-1.5c0.1-0.3,0.1-0.5,0.1-0.5C51.7,87.2,51.2,88.4,50.6,89.8z M50.4,91.1c-0.3,0.8-0.4,1.1-0.3,0.8
				c0.1-0.1,0.2-0.4,0.3-0.6c0-0.1,0.1-0.2,0.1-0.3c0-0.1,0.1-0.3,0.1-0.3v-0.2C50.7,90.5,50.6,90.7,50.4,91.1z M54.2,81.1
				c-0.1,0.2-0.3,0.5-0.4,0.9l-0.2,0.5c-0.4,1-0.4,1.2-0.3,0.8c0.1-0.4,0.1-0.8,0.3-1.1c0.1-0.3,0.4-0.8,0.7-1.4
				c0.1-0.2,0.1-0.3,0.1-0.3S54.3,80.8,54.2,81.1z M55.4,80.1c-0.1,0.2-0.1,0.5-0.1,0.5s0.2-0.2,0.3-0.4c0.1-0.2,0.1-0.5,0.1-0.5
				S55.4,79.9,55.4,80.1z M71.1,40.6c0.1-0.1,0.1-0.1,0,0.2c-0.1,0.3-0.3,0.4-0.3,0.4s-0.1,0.1-0.1,0.4s-0.3,1-1,2.4
				c-0.5,1.1-0.8,2.1-0.8,2.1s-0.9,2.1-2,4.7c-1.4,3.5-3.1,7.7-5.4,13.4c-0.8,2.1-1,2.3-1.8,4.4c-0.2,0.5-0.4,1-0.5,1.4
				c-1,2.3-1.3,3-1.4,3.1c-0.1,0.1,0-0.4,1.1-3l0.1-0.1c1.6-3.8,1.8-4.8,1.1-3.1c-0.5,1.2-0.5,1.1,0.3-0.9c0.6-1.6,0.8-1.9,0.4-1.3
				c-0.5,1.1-1.4,3.3-1.4,3.7c0,0.1-0.2,0.8-0.5,1.6c-0.1,0.3-0.3,0.8-0.5,1.1c-0.5,1.3-0.8,2.1-0.7,1.7c0.3-1.2,0-1-0.5,0.3
				c-0.4,1-0.4,1.2-0.2,1.1c0.2-0.1,0.2-0.1-0.1,0.5c-0.2,0.3-0.3,0.5-0.3,0.4c0-0.1-0.1-0.1-0.1,0c0.1-0.3,0.6-1.4,0.7-1.7
				c-0.1,0.3,1.5-3.8,1.4-3.5l0.1-0.1c0,0.1,1.4-3.7,1.4-3.6c0.7-1.6,1.3-3.3,2-4.9c0.7-1.6-0.1,0.3,0.5-1.3
				c0.1-0.3,0.2-0.6,0.3-0.8c0.1-0.3,0.3-0.7,0.3-0.8c0-0.1,0.1-0.2,0.1-0.3v0.1c0.1-0.2,0.3-0.5,0.3-0.7c-0.1,0.2-0.2,0.5-0.3,0.9
				c-0.3,1.4-0.7,2.1-1.6,4.1c-0.3,0.6-0.3,0.8-0.1,0.3c0.3-0.5,0.3-0.5,0.1,0c-0.1,0.3,0.4-1,1.2-2.9c0.7-1.7,0.2-0.4,0.9-2.1
				c1.4-3.3,2.3-5.9,2.4-6.2c0.1-0.3,0-0.3-0.2,0.3c-0.1,0.4-0.7,1.9-1.1,3c-0.8,2-0.9,2.1-1,1.7v-0.1c0.3-0.9,0.8-1.7,1.1-2.6
				l1.4-3.5c0.4-1,1-2.1,1.4-3.1c0.1-0.2,0.2-0.5,0.3-0.8c-0.1,0.4-0.3,1-0.5,1.4c-0.1,0.3-0.3,0.8-0.3,0.9c0,0.2,1.2-2.7,3.3-7.3
				c0.3-0.5,0.5-1,0.8-1.5C71.2,40.2,71.2,40.4,71.1,40.6z M57.1,74.6c0,0.1-0.1,0.2-0.1,0.3c0,0.1-0.1,0.1-0.1,0.2
				c-0.1,0.1-0.1,0.3-0.1,0.3c-0.1,0.1-0.1-0.1,0.1-0.4c0-0.1,0.1-0.1,0.1-0.1c0.1-0.3,0.3-0.5,0.3-0.5S57.1,74.4,57.1,74.6z
				 M58.1,73.8c-0.1,0.1-0.2,0.5-0.4,1c-0.3,0.8-0.7,1.9-0.7,1.9s0.3-0.7,0.7-1.6c0.1-0.2,0.1-0.4,0.2-0.5
				C58,74.1,58.2,73.8,58.1,73.8L58.1,73.8z M57.8,75.3c-0.4,1-0.5,1.4-0.3,1c0.1-0.2,0.2-0.5,0.3-0.9L58,75
				c0.1-0.1,0.1-0.3,0.1-0.5l0.1-0.3C58.3,74.2,58.1,74.6,57.8,75.3z M60.9,64.4c-0.2,0.6-0.3,0.9-0.1,0.6
				C60.9,64.9,60.9,64.7,60.9,64.4c0.1-0.1,0.3-0.4,0.3-0.5c0-0.1,0.1-0.1,0.1-0.1S61.1,64,60.9,64.4z M65.3,53.1
				c-0.3,0.8-0.5,1-0.3,0.8c0.1-0.1,0.2-0.3,0.3-0.5c0.1-0.2,0.3-0.5,0.3-0.8c0-0.1,0.1-0.2,0.1-0.2S65.5,52.7,65.3,53.1z M66.1,55
				c-0.3,0.8-0.4,1-0.3,0.8c0.1-0.1,0.2-0.4,0.3-0.6c0.1-0.2,0.2-0.5,0.3-0.7c0-0.1,0.1-0.2,0.1-0.2S66.3,54.5,66.1,55z M69.3,45.5
				c0,0.1-0.1,0.1-0.1,0.2c-0.1,0.3-0.2,0.5-0.1,0.4c0-0.1,0.1-0.2,0.2-0.3h-0.1c0.1-0.1,0.1-0.3,0.2-0.5c0-0.1,0.1-0.2,0.1-0.2
				S69.5,45.1,69.3,45.5z M71.3,40c0.5-1.8,1.1-2.8,1.2-2.8S72.2,38.2,71.3,40z"/>
			<path class="st0" d="M82.3,74.2c0,0.2-0.1,0.5-0.1,0.6c1.1,0.1,2,1,1.8,2.2c-0.2,1.3-3.9,10-2.8,9.5c3.9-1.8,6-4,9.7-6.3
				c0.6-0.3-1.8,1.8-1.6,1.5c-2.7,1.8,5.1-3.3,5.8-3.9c1-0.8,4.5-3.1,4.5-3.1c-0.5,0.3-1.4,1-2.9,2.2c-0.4,0.3-1.8,1.4-3.3,2.8
				c-0.8,0.9,2.3-1.2,3.1-2.1c0.7-0.7,2.1-1.8,2.1-1.8c-2.1,2.5-3.2,2.7-5.1,4.5c-0.3,0.2-0.6,0.4-0.6,0.5c0.2-0.1,0.2,0-0.3,0.5
				c-0.2,0.2-0.5,0.4-0.8,0.6c0.2-0.1,0.5-0.4,0.8-0.5c0.1-0.1,0.4-0.3,0.8-0.7c1.2-1,3-2.3,4.7-3.8c0.7-0.6,1.2-1,1.4-1.2
				c-0.3,0.3,0.7-0.5-1,1.1c-0.1,0.1-0.3,0.2-0.3,0.3L98,77.2c-0.1,0.1-0.2,0.1-0.3,0.2c-0.1,0.1-0.2,0.3-0.2,0.5
				c-0.1,0.1-0.3,0.3-0.5,0.4c-0.1,0.1-0.3,0.2-0.3,0.3c-0.1,0.1-0.2,0.1-0.3,0.2s-0.1,0.1-0.1,0.2c-0.9,0.8-1.9,1.5-2.7,2.2
				c-3.6,3-6.7,6.2-11,7.9c-2.1,0.8-5.5-0.8-5.3-3.8c0.1-1.9,1-4.1,1.6-6.2c-1.4,0.5-6.6,9.6-11.8,6c-2.7-1.8-1.6-7.5,2.1-11.6
				c1.9-2,5.1-3.2,7.8-3.2S82.1,71.4,82.3,74.2z M69.8,82.6c3.5-1.4,6.8-6.5,11.4-7.7c-0.1-0.1-0.3-0.2-0.4-0.3
				c-0.9-0.8-1.8-1.2-2.8-1.2C72.8,73.3,67.5,83,69.8,82.6z M70.3,83.3c2.1-0.5,5.8-4,8.4-6.3C75.8,78.5,73,82.2,70.3,83.3z
				 M80,85.8c0-0.7,0.3-2.2,0.8-3.6c0.5-1.8,2.1-5.2,1.8-5.1C81.2,79.4,79.7,83.1,80,85.8z M91,81l-3.3,2.5c0.1,0,3.1-2.1,4-2.8
				c0.5-0.4,0.9-0.8,0.9-0.8C92.6,79.9,91.8,80.4,91,81z M96.3,79c-0.1,0.1-0.3,0.1-0.3,0.2c-0.1,0.1-0.2,0.1-0.3,0.2
				c-0.1,0.1,0,0.1,0.1,0l0.1-0.1l0.1-0.1H96l0.1-0.1C96.1,79.2,96.2,79,96.3,79L96.3,79L96.3,79z"/>
			<path class="st0" d="M113.2,48.1c-1.5,3.6-2.5,5.8-3.1,7.2c0.2,0,0.4-0.1,0.7-0.1c3.9-0.1,10.7-0.5,15.7-0.5h2
				c5.6,0,10.6,0.2,16.7,0.5c0.5,0.1,1,0.1,0.4,0.2c-1,0.1-3.6,0.1-6.6,0.1c0.5,0.1,0.2,0,0.6,0.1c0.5-0.1,9.7,0.1,9.7,0.2
				c0,0.1-9.1,0.1-10,0.1c-1.7,0-2.4,0-2.2,0.1c1.2,0.1,18.1-0.1,12.7,0.1c-1,0-10.3,0-10.2,0c0.1,0,8.8,0.2,8.4,0.2
				c-0.5,0-0.6,0-0.2,0c0.3,0,0.5,0.1,0.5,0.1c0,0.1-0.8,0-2,0c-3-0.1-5.3-0.1-12.7-0.1c-5.7,0-7.9,0.1-8.1,0
				c-0.2-0.1-0.3-0.1-0.3,0c0,0.1-0.4,0.1-1,0.1c-0.5,0-1.2,0-1.2-0.1c-0.1-0.1-0.2,0-0.2,0.1s-0.3,0.2-1.5,0.2c-1.1,0-1.3,0-1-0.1
				c0.3-0.1,0.3-0.1-0.3-0.1c-0.4,0-1,0.1-1.2,0.1c-0.2,0.1-1,0.1-2.2,0.1c-1,0-1.7,0.1-1.5,0.1c0.2,0-1.9,0.1-4.5,0.2
				c-0.1,0-0.2,0.1-0.3,0.1c1.4-0.1,4.7-0.3,5.3-0.3c0.7,0,2.9-0.1,2.9-0.1c-0.2-0.1,0.4-0.1,0.8,0c0.3,0.1,0.5,0.1,0.5,0
				s0.5-0.1,1-0.1h0.8c-0.3,0-0.5,0.1-0.8,0.1c-0.8,0.1-0.7,0.1,0.3,0.1c0.6,0,1-0.1,1-0.1s0.1-0.1,0.3,0c0.1,0,0.4,0.1,0.7,0.1
				c0.3,0-0.9,0.1-2.5,0.1s-3.2,0.2-3.2,0.2c-0.1,0,0.2,0.1,0.6,0.1c1,0,1,0.1,0.1,0.2h-0.1c-0.4,0-1,0.1-1.4,0.1h-0.1
				c-0.2,0-0.4-0.1-0.6-0.1c-0.5,0-1,0.1-1.4,0.1h0.1h-0.1h-0.1c-0.4,0-0.8,0.1-1.2,0.1c0.2,0-0.1,0-0.3,0h-0.4h-0.7
				c-0.1,0-0.1-0.1,0.2-0.1c0.8,0,0.8-0.1-0.3-0.1c-0.6,0-0.8,0.1-0.6,0.1c0.1,0,0,0.1,0,0.1h-0.9c-0.3,0-0.5,0.1-0.8,0.1v0.1
				c0,0-0.3,0.1-0.5,0.1c-3.6,7.3-15.8,33.4-10.7,39.8c1,1.2,5-2.5,6-4.1c0.5,0.5-2.6,3.8-3.5,3.8c-0.3,0.6,0.9,0.3,2.3-1.4
				c0.8-1.2,1.9-1.2,1.4,0.4c-0.8,1.4-2.4,3-4.2,3c-1.8,0-3.2-0.4-4.4-1.9c-2.1-2.7-2.2-8.3-0.7-13.8c2.5-8.8,5.9-17.1,9.5-25.4
				c-1,0.1-1.5,0.1-2.8,0.1c-4.2,0.3-8.7,0.8-10.2,1c-0.3,0.1,0.7,0.5,0.5,0.5c-2.1,0.5-4,0.1-4-0.8c0-1.1,0.1-1.7,1.5-2.2
				c0.3,0,0.6,0.1,0.9,0.1c3.4-0.3,3.5-0.5,8.1-0.9c2.3-0.2,4.7-0.4,7-0.5c0.1,0,0.2-0.1,0.3-0.1c1.3-3,2.4-5.7,4.3-9.2
				c0.2-0.8,0.7-1.1,1.2-1.1h0.1C112.8,45.3,114.2,46.7,113.2,48.1z M98.6,77.6c0.1,0.7-1.3,6.3-1.7,5.4c-0.2-0.7,1.2-4.2,1.6-5.1
				l-0.1,0.1c-0.3,0.5,2.1-6,1.8-5.6c-6,13.6-5.6,19.7-5.1,20c-0.3-1.4,0.8-8.1,1.2-7.7c-0.1,0.2-1.2,9.3-0.5,8.1
				c0-0.1,0.2-0.1,0.3-0.6c-0.5,0.7,0.3-2.8,0-2.7c-0.3,0.1-0.1-1,0.4-2.7c-0.1,0-0.1-0.1-0.1-0.1c-0.3-0.8,0.8-3.1,0.8-3.1
				c0.1,0.1,0.2,0.2,0.2,0.5c2.2-7.2,6.4-18.8,7-19.7C102.3,67.3,100.8,74,98.6,77.6z M96.3,96.1c0.1,0-0.1-0.8-0.4-2.5
				C95.8,95.4,96.2,96.1,96.3,96.1z M97.7,58.4c-0.8,0.1-0.8,0.1-0.5-0.1C97.3,58.3,97.6,58.4,97.7,58.4z M100.1,57.3
				C100.2,57.3,100.2,57.4,100.1,57.3c-0.3,0.1-1.5,0.3-2.9,0.3C97.5,57.6,99.4,57.3,100.1,57.3L100.1,57.3z M103.3,56.4l-1.6,0.1
				h0.1c-0.6,0.1-3,0.3-3.2,0.3c-1,0,2.9-0.4,4.5-0.4H103.3z M103.4,96.5c0,0-1.3,1.4-1.6,1.4h-0.1h0.1c0.1,0,0.2,0.1,0.5,0.1
				c0.3,0,0.9-0.5,1.4-1.2c0.1-0.3,0.1-0.5,0.1-0.5C103.6,96.2,103.4,96.5,103.4,96.5z M103.8,56.4
				C103.6,56.4,103.6,56.4,103.8,56.4L103.8,56.4z M106.6,59c0,0-1.9,4-2,4.7c-0.1,0.8,2.8-4.9,2.1-4.8C106.7,59,106.7,59,106.6,59z
				 M110.8,57.6c0,0-0.5,0.1-1.2,0.1v-0.1c0.1,0,0.1-0.1,0.2-0.1h0.6H110.8z M116.9,57.4c-0.1,0-1,0.1-1.9,0.1c-1,0-1.6,0-1.6,0
				s1-0.1,1.9-0.1c0.1,0,0.1-0.1,0.2-0.1h1C116.7,57.3,116.9,57.4,116.9,57.4z M114.4,57.3c0.3,0,0.1,0.1-0.3,0.1
				c-0.5,0-0.8-0.1-0.5-0.1h0.4h0.3H114.4z M120.4,57.3H120c-0.8,0-0.8,0.1-0.5,0.1h0.8c0.3,0,0.5,0,1-0.1c0.3,0,0.3-0.1-0.1-0.1
				H120.4z M122.3,56.5c0,0-0.2,0.1-0.3,0.1c-0.1,0-0.3-0.1-0.3-0.1s0.2-0.1,0.3-0.1C122.1,56.4,122.3,56.5,122.3,56.5z M126.5,56.4
				h-0.8h-1.4c0,0,0.5-0.1,1.2-0.1h0.4C126.3,56.3,126.6,56.4,126.5,56.4z M126,56.1c0.4,0,0.2,0-0.5,0s-1,0-0.8,0h0.6h0.3H126z
				 M125.1,56.9c-0.1,0,0,0.1,0.3,0.1h0.1c0.3,0,0.3-0.1,0.1-0.1h-0.1h-0.1H125.1z M133.1,56.7h-3.1c-2.5,0-3.1,0.1-3.1,0.1
				c-0.1,0.1,0.2,0.1,2.1,0.1c2.9-0.1,3.5,0,2.3,0.1c-0.8,0.1-0.8,0.1,0.5,0.1c1.2,0,1.4,0,1,0.1c-0.8,0.1-2.3,0-2.6-0.1h-1.8
				c-1,0-1.4,0.1-1.2,0.1c0.9,0.1,0.6,0.2-0.3,0.2c-0.8,0-0.9,0-0.8-0.1c0.1-0.1,0.1-0.1-0.3-0.1c-0.3,0.1-0.4,0.2-0.3,0.2
				c0,0,0.1,0.1,0,0.1c0.4,0,0.8-0.1,1.2-0.1h2.5c0.9,0,1.6-0.1,2.5-0.1h3.5h1c0.2,0,0.4-0.1,0.5-0.1h0.5h0.2h-0.1h0.5
				c-0.1,0-0.4-0.1-0.6-0.1c-0.9-0.1-1.4-0.1-2.9,0c-0.4,0-0.5,0.1-0.2,0c0.3-0.1,0.3-0.1,0-0.1c-0.1,0,0.7-0.1,2.1-0.1h1.5
				c2.3,0,4.1,0.1,4.3,0.1c0.2,0.1,0.1,0.1-0.3,0.1c-0.3,0-1.2-0.1-2.1-0.1c-1.4,0-1.4,0-1.3,0.1l0.1,0.1h1.8h2.5h2.2h0.5
				c-0.3-0.1-0.8-0.1-1-0.1h-0.6c-0.1,0,1.8-0.1,5.2-0.1c0.4,0,0.8-0.1,1.1-0.1c-0.1,0-0.2-0.1-0.3-0.1c0.1,0,0-0.1-0.1-0.1
				s-0.3,0-0.3,0.1c0,0.1-0.1,0.1-0.3,0c-0.2-0.1-0.7-0.1-1.7-0.1h-1.4c0,0-1.4-0.1-3.3-0.1C140.3,56.6,136.9,56.7,133.1,56.7z
				 M133.2,56.9c0.2,0,0,0-0.4,0c-0.4,0-0.5,0-0.3,0h0.3H133.2z M140.2,55.9c0.3,0,0.1,0.1-0.3,0.1s-0.8-0.1-0.5-0.1h0.4H140.2z
				 M141.2,57c0.3,0,0.1,0.1-0.4,0.1c-0.5,0-0.8-0.1-0.5-0.1h0.5H141.2z M146.6,56.4c0.2,0,0.1,0.1-0.2,0.1h-0.1
				c-0.3,0-0.3-0.1-0.3-0.1h0.2H146.6z M150.2,56.8"/>
			<path class="st0" d="M125.1,74.2c0,0.2-0.1,0.5-0.1,0.6c1.1,0.1,2,1,1.8,2.2c-0.2,1.3-3.9,10-2.8,9.5c3.9-1.8,6-4,9.7-6.3
				c0.6-0.3-1.8,1.8-1.6,1.5c-2.7,1.8,5.1-3.3,5.8-3.9c1-0.8,4.5-3.1,4.5-3.1c-0.5,0.3-1.4,1-2.9,2.2c-0.4,0.3-1.8,1.4-3.3,2.8
				c-0.8,0.9,2.3-1.2,3.1-2.1c0.7-0.7,2.1-1.8,2.1-1.8c-2.1,2.5-3.2,2.7-5.1,4.5c-0.3,0.2-0.6,0.4-0.6,0.5c0.2-0.1,0.2,0-0.3,0.5
				c-0.2,0.2-0.5,0.4-0.8,0.6c0.2-0.1,0.5-0.4,0.8-0.5c0.1-0.1,0.4-0.3,0.8-0.7c1.2-1,3-2.3,4.7-3.8c0.7-0.6,1.2-1,1.4-1.2
				c-0.3,0.3,0.7-0.5-1,1.1c-0.1,0.1-0.3,0.2-0.3,0.3l-0.1,0.1c-0.1,0.1-0.2,0.1-0.3,0.2c-0.1,0.1-0.2,0.3-0.2,0.5
				c-0.1,0.1-0.3,0.3-0.5,0.4c-0.1,0.1-0.3,0.2-0.3,0.3c-0.1,0.1-0.2,0.1-0.3,0.2c-0.1,0.1-0.1,0.1-0.1,0.2
				c-0.9,0.8-1.9,1.5-2.7,2.2c-3.6,3-6.7,6.2-11,7.9c-2.1,0.8-5.5-0.8-5.3-3.8c0.1-1.9,1-4.1,1.6-6.2c-1.4,0.5-6.6,9.6-11.8,6
				c-2.7-1.8-1.6-7.5,2.1-11.6c1.9-2,5.1-3.2,7.8-3.2S124.9,71.4,125.1,74.2z M112.5,82.6c3.5-1.4,6.8-6.5,11.4-7.7
				c-0.1-0.1-0.3-0.2-0.4-0.3c-0.9-0.8-1.8-1.2-2.8-1.2C115.6,73.3,110.3,83,112.5,82.6z M113.1,83.3c2.1-0.5,5.8-4,8.4-6.3
				C118.6,78.5,115.8,82.2,113.1,83.3z M122.7,85.8c0-0.7,0.3-2.2,0.8-3.6c0.5-1.8,2.1-5.2,1.8-5.1C124,79.4,122.5,83.1,122.7,85.8z
				 M133.8,81l-3.3,2.5c0.1,0,3.1-2.1,4-2.8c0.5-0.4,0.9-0.8,0.9-0.8C135.3,79.9,134.6,80.4,133.8,81z M139.1,79
				c-0.1,0.1-0.3,0.1-0.3,0.2c-0.1,0.1-0.2,0.1-0.3,0.2c-0.1,0.1,0,0.1,0.1,0l0.1-0.1l0.1-0.1h0.1l0.1-0.1
				C138.9,79.2,139,79,139.1,79L139.1,79L139.1,79z"/>
			<path class="st0" d="M164.5,43.6c2.1,7-19.5,33.8-23.2,34.8c-1,2-2.5,8.5-1.1,9.6c2.5,1.8,7.6-2.9,10.5-5.5
				c0.1-0.1,0,0.1-0.2,0.4c-0.2,0.3-1.2,1.4,1.1-0.4c0.5-0.1,0.7-1.1,1.4-1.2c0.8-0.5,0.9-0.6,0.8-0.7c-0.1-0.3,2.9-1.8,3.3-2.5
				c4.5-3-6.9,7.6-10.1,9.6c4.7-2.5,9-8.1,9.1-7.3c0.3-0.4,0.5-0.8,0.8-0.8h0.1c0,0,0.1,0.1,0,0.1c-0.1,0.1-0.2,0.3-0.3,0.4
				c0.1-0.1,0.2-0.3,0.3-0.3c1.2-1.1,1.2-1.3,0.8-0.5l-0.7,0.7c-0.5,0.5-1,1-1.5,1.4c-0.2,0.3-0.4,0.5-0.5,0.6
				c-3.5,3.6-7.6,7.7-12.5,8.4c-3.4,0.5-5.2-1.2-5.6-4.6c-0.5-4.2,1.8-9.7,2.7-12.5c3.4-8.9,6.6-16,12.5-23.9
				c2.7-3.6,5.8-7.9,9.2-8.1h0.2C162.5,41.3,164,41.8,164.5,43.6z M139.5,87.4c0,0-0.8-0.2-0.4-4c0.2-1.8,0.5-2.2,0.8-4
				C138.1,84.7,138.9,87.8,139.5,87.4z M140.3,74.8c0,0.1-0.1,0.2-0.1,0.3c-0.3,1-0.5,1.6-0.5,1.7c0.1,0.2,0.3-0.3,0.5-1.7
				c1.3-3.2,4.2-10,4.2-10S140.6,73,140.3,74.8z M141.3,74.9c0.3-0.3,1.2-4,3.6-9.1c0.9-1.9,2.5-4.4,3.7-7.2c2.1-4,5.6-9.1,6.6-10.3
				C148.6,55.3,140.1,76.2,141.3,74.9z M143.8,70.1c-0.6,1.4-1.6,4.1-1.6,4.2l3.8-8.8C143.2,70.9,144.6,68.5,143.8,70.1z
				 M147.6,63.8c-0.9,1.6-2.9,5.9-4.9,10.3h0.1c5.2-3.6,23.6-30.5,19.4-30.2H162C159.4,44,150.9,57.7,147.6,63.8z M146.6,72.1
				c0.5-0.3,5.6-6.9,5.8-7.3C152.4,64.9,146.2,72.5,146.6,72.1z M147.8,86.1c1.8-1.2,5.3-4.7,7.1-5.8
				C153.5,82.2,149.3,85,147.8,86.1z M150.8,56.3c-0.5,0.7-1.7,2.9-2.6,4.5c1.3-2.1,3.1-5.1,3.1-5.1l0.1-0.1
				C151.5,55.5,151.3,55.7,150.8,56.3z M148.6,70.7c1.5-1.3,5.9-7.9,4.4-5.8C152.9,64.9,147.9,71.4,148.6,70.7z M156.8,57.9
				c0.1,0-6.2,8.3-5.8,8C152.3,65,157.1,57.9,156.8,57.9L156.8,57.9z M151.4,81.8c1.4-1.2,3.1-2.7,4.7-4c0.2-0.1,0.3-0.2,0.3-0.2
				C154.2,80.2,153.1,80.7,151.4,81.8z M152.1,54.4c-2.3,3.6,6.1-9.6,8.6-10.9c0,0-0.1-0.1-0.1-0.1
				C159.5,43.5,153.6,50.9,152.1,54.4z M163.2,46.5c0.3,0.5-1.7,5.2-4.2,9.1c-3.8,6-7.5,10-5.5,8.4c6.2-7.9,10.7-17.7,10-17.7
				C163.5,46.3,163.3,46.4,163.2,46.5z M158,78.4c-0.1,0.1-0.4,0.2-0.4,0.2s0.1-0.2,0.3-0.3c1.4-1.4,2.1-2,2.1-2S159.4,77,158,78.4z
				 M157.7,79c-0.1,0.1,0-0.1,0.3-0.4l0.1-0.1C157.9,78.7,157.7,78.9,157.7,79z M158.1,78.5L158.1,78.5c1.1-1.4,2.1-2.4,2.2-2.4
				C160.3,76.2,159.9,76.8,158.1,78.5z"/>
			<path class="st0" d="M162,73.3c1.2,0.1,2.6,1.6,1.4,2.9c-0.5,1.2-6.6,9.9-2.9,9.3c4.6-2.3,10.3-6,14.4-9.2
				c-3.9,3.8-6.2,4.8-6.5,5.1c-0.2,1,7.7-5.5,8.4-6.4c1.8-1.4,0.9-0.5,1-0.4c0.1,0.3-7.1,6-0.1,0.7c-0.1,0.1-4.3,3.8-4.7,4.1
				c0.5-0.4,3.1-2.2,4.2-3c-2.3,2.6-10.9,10.2-15.8,11c-2.7,0.4-4.5-1.1-4.9-2.7c-0.5-2.4,0.3-5.1,1.4-7.4c0.1-0.3,0.2-0.4,0.2-0.5
				c0-0.1,0.1-0.2,0.1-0.2s0.1-0.2,0.3-0.5c0.1-0.3,0.3-0.7,0.3-0.7c1.2-1.6,1.6-1.6,2.5-2c0.1-0.1,0.3-0.1,0.5-0.1H162z
				 M157.2,83.6c0-2.6,3.8-10,2.5-7.7C158.6,77.3,156.6,82.2,157.2,83.6z M166.8,65.1c0.8,0.3,2.7,2.9-2.5,4.9
				c-2.3,0.9-0.7-1.6-0.8-2.6c-0.1-1.4,1.5-2.5,2.7-2.5C166.4,65,166.7,65.1,166.8,65.1z M167,84.2c-0.2,0.1,0.8-0.3,3.6-2.5
				l1.8-1.6C172,80.3,167.2,84,167,84.2z M177.2,76.4C177.9,75.9,177.7,76,177.2,76.4L177.2,76.4z"/>
			<path class="st0" d="M188.5,74.2c0,0.2-0.1,0.5-0.1,0.6c1.1,0.1,2,1,1.8,2.2c-0.2,1.3-3.9,10-2.8,9.5c3.9-1.8,6-4,9.7-6.3
				c0.6-0.3-1.8,1.8-1.6,1.5c-2.7,1.8,5.1-3.3,5.8-3.9c1-0.8,4.5-3.1,4.5-3.1c-0.5,0.3-1.4,1-2.9,2.2c-0.4,0.3-1.8,1.4-3.3,2.8
				c-0.8,0.9,2.3-1.2,3.1-2.1c0.7-0.7,2.1-1.8,2.1-1.8c-2.1,2.5-3.2,2.7-5.1,4.5c-0.3,0.2-0.6,0.4-0.6,0.5c0.2-0.1,0.2,0-0.3,0.5
				c-0.2,0.2-0.5,0.4-0.8,0.6c0.2-0.1,0.5-0.4,0.8-0.5c0.1-0.1,0.4-0.3,0.8-0.7c1.2-1,3-2.3,4.7-3.8c0.7-0.6,1.2-1,1.4-1.2
				c-0.3,0.3,0.7-0.5-1,1.1c-0.1,0.1-0.3,0.2-0.3,0.3l-0.1,0.1c-0.1,0.1-0.2,0.1-0.3,0.2c-0.1,0.1-0.2,0.3-0.2,0.5
				c-0.1,0.1-0.3,0.3-0.5,0.4c-0.1,0.1-0.3,0.2-0.3,0.3c-0.1,0.1-0.2,0.1-0.3,0.2c-0.1,0.1-0.1,0.1-0.1,0.2
				c-0.9,0.8-1.9,1.5-2.7,2.2c-3.6,3-6.7,6.2-11,7.9c-2.1,0.8-5.5-0.8-5.3-3.8c0.1-1.9,1-4.1,1.6-6.2c-1.4,0.5-6.6,9.6-11.8,6
				c-2.7-1.8-1.6-7.5,2.1-11.6c1.9-2,5.1-3.2,7.8-3.2S188.3,71.4,188.5,74.2z M175.9,82.6c3.5-1.4,6.8-6.5,11.4-7.7
				c-0.1-0.1-0.3-0.2-0.4-0.3c-0.9-0.8-1.8-1.2-2.8-1.2C179,73.3,173.7,83,175.9,82.6z M176.5,83.3c2.1-0.5,5.8-4,8.4-6.3
				C182,78.5,179.2,82.2,176.5,83.3z M186.1,85.8c0-0.7,0.3-2.2,0.8-3.6c0.5-1.8,2.1-5.2,1.8-5.1C187.4,79.4,185.9,83.1,186.1,85.8z
				 M197.2,81l-3.3,2.5c0.1,0,3.1-2.1,4-2.8c0.5-0.4,0.9-0.8,0.9-0.8C198.7,79.9,198,80.4,197.2,81z M202.5,79
				c-0.1,0.1-0.3,0.1-0.3,0.2c-0.1,0.1-0.2,0.1-0.3,0.2c-0.1,0.1,0,0.1,0.1,0l0.1-0.1l0.1-0.1h0.1l0.1-0.1
				C202.3,79.2,202.4,79,202.5,79L202.5,79L202.5,79z"/>
		</g>
		<g>
			<path class="st0" d="M267.8,37.2c0.2,0,0.3,0.1,0.5,0.1c-0.6-0.1-1.2,0-1.7,0c-1.7,0.1-3,0.5-4.1,0.9c-2.4,0.9-3.7,1.9-3.7,1.9
				c0.2,0,1.6-0.9,3.8-1.6c1.1-0.4,2.4-0.7,4-0.8c0.6,0,1.5,0,2.2,0.2c0.4,0.1,0.9,0.2,1.3,0.4c-0.7-0.8-0.1-0.3,0.6,0.2h-0.1
				l-0.5-0.2c0.2,0.2,0.6,0.6,1,1c0.2,0,0-0.3,0.3,0.3l-0.3-0.3c-0.1,0-0.4-0.1-0.7-0.2l-0.2-0.1c-1.3-0.6-2.4-0.6-3.5-0.6
				c-1.8,0.1-3.2,0.6-3.9,0.7c-0.4,0.1-0.6,0.2-0.6,0.2c0-0.1-0.5,0.1-1.1,0.5c-0.2,0.2-1.1,0.6-2.2,1.3c-1,0.6-2.1,1.5-3.2,2.3
				c0.2-0.2,0.6-0.4,0.9-0.6c0.7-0.4,1.5-0.9,2.5-1.5c1.1-0.6,2.3-1.3,3.7-1.8c0.1,0,0.2-0.1,0.2-0.1c1.2-0.4,2.5-0.7,3.8-0.8
				c1.2-0.1,2.4,0.2,3.6,0.6c0.6,0.3,1,0.4,1.1,0.4v0.1v-0.1c0.2-0.1-0.2-0.6-0.7-1.1c5.4,3.4,3.6,16.9,1.9,19.2
				c-0.6,0.6-3.1,0.6-4.2-0.8c-0.4-1.2-0.2-2.4,0.7-6.2c1.1-7.5-0.2-8.6-1.2-9.2c-1.1-0.6-3,0.1-4.7,1c-9.3,4.7-22.3,20.9-24.9,25.4
				c-6.4,8-11,23.6-5.9,29.1c4.1,4.6,14.7,1.7,23.6-4.3c8.6-5.8,17.3-14.4,15.6-18.4c-0.2-1-4.3,0.7-5.9,1.6c-0.2,0-0.4,0.2-0.6,0.2
				c-0.4,0-0.4,0.1-0.4,0.2c-0.1,0-0.3,0.1-0.4,0.1c-0.2,0-0.2,0.2-0.4,0.2c-0.3-0.1-0.4,0-0.6,0.3c-0.1,0-0.2,0.2-0.3,0.2l-0.2,0.1
				V77c0-0.1-0.3,0.1-0.6,0.3c-0.2,0.1-0.5,0.2-0.7,0.3l-0.5,0.2c0.1-0.2-0.1-0.1-1.1,0.4c-0.2,0.1-0.6,0.3-0.8,0.5
				c-0.8,0.4-1.3,0.5-0.2-0.2c0.3-0.2,0.6-0.4,0.8-0.6c0.4-0.3,0.6-0.6,0.6-0.6h-0.2h-0.2c-0.1,0-0.2,0.1-0.4,0.2
				c-0.3,0.2-0.9,0.4-1.3,0.6c-1.5,0.9-2.9,1.8-2.8,1.6c0-0.1,1.7-1.2,4-2.5c0.2-0.2,0.6-0.2,0.8-0.4c1.4-0.9,5.4-3,5.3-3.2
				c-0.4-0.2-2.6,0.8-4.1,1.3c-1.2,0.2,5.6-3.6,7.4-3.5c2.9-0.9,6.7,0.2,7,4.5c0,4.3-4.1,10-10,15c-8.5,7.3-23.1,14.4-33.6,8.4
				c-3.2-2.3-6.6-7.7-6.1-11.4c0,0-0.1-0.1-0.1-0.2c-0.1-0.3,0.2-0.6-0.2-1.7c0.1-0.4,0.3-0.9,0.3-1.9c0.2-1.2,0.6-2.3,0.8-3.2
				c2.1-7.3,1.1-3.7-0.3,0.8c-0.2,0.6-0.5,1.3-0.6,1.9c0.5-4.3,1-6.3,3.7-11.8c0.8-1.6,1.7-3.2,2.6-4.8c0.2-0.5,0.6-1,0.9-1.5
				c0.6-1.1,1.3-2,2-3.1c0.5-0.7,1-1.4,1.5-2.1c0,0.1,0,0.1,0.1,0.1c0.2-0.1,0.1,0.3-0.1,0.9c-0.3,0.9-0.4,0.9-0.5,0.5
				c-0.1-0.4-0.3-0.2-1.2,1c-1.3,1.8-0.8,1.9,0.2,0.8c0.3-0.4-0.3,0.6-1.3,2.3l-0.1,0.1c-1,1.6-1.9,3.1-2.1,3.2
				c-0.6,0.4-2,3.1-2.6,4.8c-0.3,1.2,0,0.3,1-1.6c1.7-3.4,1.1-1.9,0.8-1.1c-1.5,3.6,0.2-0.2,2.4-4c0.2-0.4,0.6-0.8,0.7-1.1
				c1.5-2.4,1.9-2.6,1.9-2.4c0,0.2-0.4,0.8-1.5,2.7c-0.4,0.7-1.1,1.7-1.8,3c-0.8,1.4-1.9,3.5-2.9,5.8c-0.3,0.7-0.6,1.4-0.9,2.1
				c-1.6,4.2-2.1,7.5-2.3,9.2l0.2-1.2c0.5-2.2,1.1-4.5,2.4-7.8c0.1-0.2,0.2-0.6,0.3-0.8c1.8-4.5,4.1-8,5.4-10.1
				c1.9-2.9,3.1-4.2,3.2-4.3c0.3-0.2,0.5-0.3,0.3-0.4c-0.1-0.1,0.3-0.8,1.1-1.9c0.7-1,1.5-1.9,1.7-1.9c0.2,0,0.2-0.2,0.1-0.3
				c-0.2-0.2,0.1-0.6,1.1-1.7c0.2-0.2,0.4-0.5,0.6-0.8c1.5-1.7,1.9-1.9,1.5-1.5c-0.4,0.7-0.2,0.6,0.6-0.3c0.6-0.6,1.3-1.5,1.5-1.9
				c0.2-0.4,1.5-1.7,3.2-3.3c0.4-0.3,0.7-0.7,1.1-1c1-0.8,1.5-1.3,1.2-1.1c5.7-3.2,2.4-1.6,1.1-1.3c-1.1,0.9-1.9,1.5-2.3,1.8
				c-0.1,0.1-0.2,0.2-0.4,0.3c-1.3,1.1-4.3,3.9-3.9,3.8c0.5-0.2-0.4,0.6-1.2,1.1c-0.6,0.3-0.8,0.5-0.8,0.8c0,0.2-0.5,1-1.1,1.6
				c-0.2,0.2-0.4,0.5-0.6,0.6c-0.2,0.2-0.4,0.5-0.6,0.6c0.3-0.4,0.6-0.9,0.9-1.3c0.7-1.1,1.1-1.5-0.4,0.2c-0.4,0.4-0.7,0.9-0.9,1.1
				c-0.2,0.3-0.4,0.6-0.3,0.6c0.1,0.1,0.1,0.2-0.2,0.4c-0.2,0.1-0.7,0.6-1.1,0.9h-0.1c0,0,0.6-0.7,1.6-2c0.5-0.6,1.1-1.3,1.7-2
				c2.3-2.5,4.4-4.7,4.5-5c0.1-0.2-0.4,0.1-1.1,0.7c-1.3,1.3-1.9,1.5-0.5-0.2v-0.1c0.6-0.6,1.4-1.3,2-1.9c0.1-0.1,0.2-0.1,0.3-0.2
				l1-0.7l0.1-0.1c0.8-0.6,1.5-1.3,2.3-2l-0.2,0.2h0.1c0.1,0,0.2-0.2,0.2-0.2c0.6-0.5,1.3-1.1,1.9-1.5c0,0-0.3,0.2,0.6-0.4
				c0.2-0.2,0.6-0.3,0.8-0.5c0.4-0.2,0.8-0.6,1.2-0.8c0.4-0.2,0.2-0.1-0.3,0.3c-3.4,2.3,1-0.1,0.7,0.1c1.1-0.6,1.3-1,1-1
				c-0.2,0-0.1-0.1-0.1-0.2c0.2-0.1,0.3-0.2,0.5-0.3c0.4-0.2,0.9-0.5,1.3-0.7c0.6-0.2,1.1-0.6,1.7-0.8c0.1,0,0.2-0.1,0.3-0.1
				c0.1,0,0.2-0.1,0.2-0.1c0.2-0.1,0.4-0.2,0.6-0.2c0.5-0.2,1.1-0.3,1.1-0.3c0,0,0.6-0.2,1.1-0.2c0.2,0,0.6-0.2,0.8-0.2
				c0.1,0,0.2-0.1,0.3-0.1h0.7h0.9H267.8z M227.7,88.5c0,0.2-0.1,0.5-0.1,0.8c0,1.6,0.2,0.8,0.2,0.8V89L227.7,88.5l0.1-0.3
				c0-0.1-0.1-0.2-0.1-0.2V88.5z M229,74.6c-0.4,0.9-0.4,1.1-0.2,0.8C228.9,75.2,229,74.9,229,74.6c0.2-0.2,0.3-0.5,0.4-0.6v-0.2
				C229.4,73.8,229.3,74,229,74.6z M237.4,60.9L237.4,60.9c0,0.2-0.2,0.4-0.2,0.6c-0.1,0.2-0.2,0.4-0.4,0.6
				c-0.3,0.3-0.3,0.2,0.1-0.4c0-0.1,0.2-0.2,0.2-0.2C237.2,61.1,237.5,60.9,237.4,60.9L237.4,60.9z M237.8,62.9
				c-0.4,0.6-0.8,1.1-0.8,1.2c0,0.2,0.5-0.5,1.2-1.5c0.7-1,1.3-1.9,1.3-1.9C239.4,60.8,238.5,61.9,237.8,62.9z M238.6,62.9
				c-0.9,1.3-0.6,1-0.6,1c0.2-0.3,0.6-0.8,0.8-1.1c0.2-0.3,0.5-0.6,0.6-0.9c0.1-0.1,0.1-0.2,0.1-0.2S239.2,62.1,238.6,62.9z
				 M243.7,52.6c-0.2,0.2-0.3,0.4-0.5,0.6c-1.4,1.5-1.9,2-1.2,1.1c0.5-0.7,0.9-1.2,1.2-1.6c0.3-0.4,0.6-0.6,1.1-1
				c0.1-0.1,0.2-0.2,0.2-0.2h0.1C244.7,51.4,244.4,51.8,243.7,52.6z M260.4,92.3c-0.2,0.1-0.3,0.2-0.6,0.4c-0.2,0.2-0.6,0.4-0.9,0.6
				c-0.9,0.6-1.5,1.1-1.3,1c-5.5,4.2-13.4,6.2-15.6,6.1c-0.7,0.2,1.5,0.5,7.6-1.4c4.9-1.9,7.5-4.2,7.5-4.2c0.5-0.3,0.8-0.5,1-0.6
				c0.4-0.2,1.2-0.7,1.9-1.2c0.4-0.3,0.7-0.6,0.6-0.6c-0.3,0,0.2-0.4,0.7-0.5c0.3-0.1,0.5-0.2,0.5-0.4c0-0.1,0.2-0.3,0.5-0.6
				C261.9,91.5,261.2,91.9,260.4,92.3z M242.3,56.6c-0.2,0.2-0.3,0.6-0.2,0.6c0.1,0.1,0.3-0.2,0.6-0.4c0.2-0.2,0.3-0.6,0.2-0.6
				C242.8,56.2,242.4,56.3,242.3,56.6z M249.1,85L249.1,85l-0.2,0.1c-0.1,0.1-0.3,0.2-0.4,0.2c-0.4,0.3-0.5,0.5-0.6,0.6h-0.1h-0.1
				c0-0.1,0.2-0.2,0.4-0.4c0.4-0.4,0.7-0.8,0.7-0.9v-0.1c0,0,0.1,0.1,0.2,0.1c0.2,0.1,0.4,0,0.6-0.3c0.2-0.2,0.4-0.4,0.5-0.4h0.1
				C250.4,83.9,250.1,84.3,249.1,85z M251.3,45c-0.6,0.5-1.1,1.1-1.6,1.5c-0.6,0.6-1.2,1.1-1.2,1.2c-0.1,0.2,0.5-0.2,1.4-1
				c0.2-0.2,0.6-0.5,0.9-0.7c0.1-0.1,0.2-0.2,0.2-0.3c1.5-1.3,2.9-2.4,3-2.6C253.8,43.2,252.7,43.9,251.3,45z M252.5,81.7
				c-0.2,0.2-0.6,0.4-0.8,0.5c-0.5,0.2-0.4,0.2,0.6-0.6c0.3-0.2,0.7-0.6,1-0.7c0.2-0.2,0.6-0.3,0.6-0.3
				C254,80.6,253.2,81.2,252.5,81.7z M253.1,44.3c-1,0.7-1,0.9-0.6,0.6c0.2-0.2,0.6-0.5,0.9-0.6c0.2-0.2,0.5-0.4,0.6-0.6
				c0.1-0.1,0.2-0.1,0.2-0.1S253.8,43.8,253.1,44.3z M253.8,80.1c-0.3,0.2-0.5,0.4-0.3,0.3c0.1,0,0.2-0.1,0.3-0.2
				c0.1-0.1,0.2-0.2,0.3-0.2l0.1-0.2C254.2,79.8,254,79.9,253.8,80.1z M254.4,80c-0.2,0.1-0.2,0.2-0.2,0.3s0.2,0,0.3-0.1
				c0.2-0.1,0.2-0.2,0.2-0.2l-0.1-0.1C254.6,79.9,254.5,80,254.4,80z M257,79.3c0.2,0.2-0.2,0.6-0.7,1l-0.2,0.1
				c-0.1,0-0.1,0.2-0.2,0.2c-0.3,0.2-0.6,0.2-0.7,0.1c-0.1-0.1,0-0.2,0.2-0.3v-0.1c0.2-0.1,0.3-0.1,0.3,0c0.1,0.2,1.1-0.5,1.1-0.7
				C256.8,79.4,256.9,79.3,257,79.3L257,79.3z M262.7,76c0.2,0.1,0.1,0.2-0.1,0.3s-0.2,0.2,0,0.2s0.1,0.1-0.2,0.1s-0.5,0.2-0.5,0.2
				s-0.1,0.2-0.2,0.2c-0.2,0.1-0.2,0-0.2-0.1c0.2-0.3-0.6,0.1-1,0.6c-0.1,0.1-0.2,0.2-0.2,0.3l-0.1,0.1h-0.1c0-0.1,0-0.2,0.2-0.3
				s0.2-0.3,0.2-0.5c0-0.2,0.3-0.5,0.6-0.6c0.2-0.1,0.5-0.2,0.6-0.1c0.2,0.1,0.3,0,0.4-0.2c0.1-0.2,0.2-0.2,0.2-0.2
				C262.5,76,262.6,76,262.7,76z M260.9,76c0,0.1,0.2,0.1,0.3,0C261.7,75.5,261.1,75.6,260.9,76L260.9,76z M262.6,91.5l0.2-0.1
				c-3.1,2.9,5.4-5.4,5.4-5.4c-2.4,2.8-2.4,3.1-5.4,5.2L262.6,91.5z M263,90.6c-0.1,0.1-0.2,0.2-0.2,0.3c-0.5,0.5-0.6,0.6,0.2,0
				C263.7,90.4,264.3,89.6,263,90.6z M263.1,89.8c-0.1,0.1-0.3,0.2-0.3,0.2c0-0.1,0.1-0.2,0.2-0.3c0.1-0.1,0.2-0.2,0.3-0.2
				C263.3,89.6,263.2,89.8,263.1,89.8z M264,75.9c-0.2,0.2-0.3,0.2-0.5,0.3c-0.2,0.1-0.5,0.1-0.4-0.2c0-0.1,0-0.2,0.1-0.2h0.2
				C263.7,75.8,264.4,75.3,264,75.9L264,75.9z M266.4,87.2c1.9-1.1,5.8-5,6-8C272.1,81.5,267.6,85.4,266.4,87.2z M273,48.3
				c-0.2,2.1-0.7,6.3-0.7,6.3c0.6,0.2,1.9-8.8,0.6-11.5c-0.2-0.5-0.4-0.8-0.5-0.8C272.1,42.3,273.2,46.6,273,48.3z"/>
			<path class="st0" d="M305.3,75c0.2-0.1,1.8-1,1.3-0.5c-0.9,1-3.3,2.8-3.2,2.7c0.4-0.2,3.9-2.4,4-2.2c0.1,0.2-2.4,2.2-5.4,3.9
				c-0.8,0.5-2.9,1.5-6.7,2.5c-1.2,2.2-3.2,5.5-6.3,7.8c-1.9,1.2-4.1,1.1-6.6-1.5c-5-5.4,5-16.4,5.2-16.5c1.4-1,2.2,0.6,4.2,0
				c0.6-0.3,2.8,0.2,4.2,2.2c0.9,1.2,0.4,4.8,0.3,5c1.7-0.5,2.8-1.2,5.4-2.3c0.8-0.3,2.6-1.1,2.9-1.4c1,0.4-6,3.2-5.5,2.8
				C298.1,78.5,301.4,77.3,305.3,75z M285.5,87.2c2.7,0.2,5.8-6.1,5.9-6.2c-2.1-0.4-3-1.9-3.6-2.8C287.8,78.3,282.4,87,285.5,87.2z
				 M292.4,74.1L292.4,74.1c-1.9,0.2-2.6,4.9-1,5.2C292.8,79.1,293.5,74.1,292.4,74.1L292.4,74.1z M299.7,78.2
				c-0.2,0.3,4.1-1.5,4.9-2.4C303.1,76.7,300.7,77.8,299.7,78.2z"/>
			<path class="st0" d="M312.3,70.8c0.6,0.9,0.4,1.6,0.2,2c0.4-0.4,1.1-1,2.1-1.9c2.4-2.3,5.5,2.7,5.3,4.9c-0.2,1.9-0.6,2.5-0.8,3.6
				c-1.1,4,3.9-2.4,6.5-5c2.6-2.7,3.9,0.8,4,1.3c0.2,1.9-1.5,4.2-0.6,6.7c0.8,2.3,10.2-6.7,13.3-9.1c0.7-0.4,1.1-0.7,1.5-1
				c-0.2,0.2-0.6,0.6-0.9,1.2c-0.7,1,0.5,0.3,1.1-0.2c0.1,0-1.8,1.5-1.8,1.7c-1.2,1.5-3.1,3.3-4.5,4.5c0.9-0.2,2.8-2.4,4.1-3.7
				l1.5-1.5c0,0-0.3,0.5-0.9,1.1c-0.6,0.6-1,0.9-0.8,0.8c0.2-0.1,0.6-0.4,1.1-0.9c0.4-0.5,0.7-0.8,0.7-0.7c-0.1,0.2-1.5,1.6-1.8,1.7
				c-0.2,0.1-0.2,0.2-0.2,0.2c0,0.1,0,0.2-0.2,0.2c-0.2,0.1-0.2,0.2-0.2,0.2c-0.1,0.2-0.2,0.4-0.3,0.6c0.1,0,0.2-0.2,0.2-0.2
				c1-0.9,5.7-6.3,3.6-3.4l-0.3,0.3c-0.1,0.2-0.3,0.3-0.4,0.5c-0.1,0.1-0.2,0.2-0.3,0.2c-0.2,0.2-0.2,0.5-0.2,0.6
				c-3.2,3.2-5.8,6.1-10,8.8c-3.4,2.2-8.1,0.3-8-2.5c-0.4-2.6-1.1-1.2-5.9,3.7c-2.1,2.6-4.6,0.3-4.9-3.3c-0.2-1.8,0.7-3.8,1.4-5.9
				c0.8-4.7-8.7,7.3-9.3,9c-0.6,1.7-1.2,2.8-3.7-0.2c-2.4-2.8,4.9-13.1,4.8-13.2c0.6-1,1.6-2.4,2.8-2.4
				C310.9,69.5,311.7,69.8,312.3,70.8z M312.9,75.5c-1.4,1-4.3,4.2-4.2,5.1c0-0.2,4.5-5.8,5.9-6.2c0.5-0.2,0.5-0.2,0.4-0.2
				C314.8,74.2,313.5,74.7,312.9,75.5z M322.1,81c-1.5,1.3-2.5,2.4-2.5,2.4l1.1-0.6c0,0,2.4-2,2.8-2.8C323.4,79.9,323.2,80,322.1,81
				z M341.8,74.5c-0.1,0.1-0.2,0.3-0.2,0.3s-0.5,0.6-1.5,1.5c-8,6.3-8.5,7.8,0.5-0.2c0.2-0.2,0.5-0.6,0.6-0.7c0.6-0.6,0.8-0.9,0.8-1
				l-0.1-0.1C342,74.3,341.9,74.4,341.8,74.5z M339.9,76c-0.7,0.6-1.5,1.3-1.9,1.6l0.1,0.1c0.2-0.2,0.8-0.6,2-1.8
				c0.1-0.1,0.5-0.4,0.8-0.8C340.8,75.2,340.4,75.5,339.9,76z M341.7,74.1c-0.6,0.6-0.8,0.9-0.6,0.7l0.1-0.1
				c0.2-0.3,0.6-0.6,0.9-1.1L341.7,74.1z M343.5,73.4c-0.5,0.6-0.5,0.5-0.2,0.2c0.1-0.2,0.2-0.3,0.3-0.5c-0.2,0.1-0.2,0.3-0.4,0.4
				c-0.4,0.4-0.2,0.1,0.2-0.2c0.6-0.7,1-1.1,1-1.1S344,72.7,343.5,73.4z M343.6,72.4"/>
			<path class="st0" d="M351.5,64.7c3.5,0.4,5.1,4.3,4.8,6c-0.6,2.4-2.4,4.5-5.8,6.7c-3.1,2.1-6.5,1.1-6.5,1.1
				c-1.4,1.7-1.8,6.2,1.5,6.3c3.4,0.1,10.1-4.8,13.8-7.8c-1,0.9-2.2,1.9-3.7,3.4c-0.8,0.7-0.9,0.8,4.1-3.1c3.8-2.8,8-6.5,2.1-1.4
				c-5.9,5.4,14.3-11.7,2.2-0.8c8.5-6.6,2.1-1.1,1.4-0.1c-2.5,2.2-2.3,1.9-3.7,2.9c-0.2,0.2-2.6,1.9-1.7,1.5c0.6-0.3,1.3-0.8,2.7-2
				c0.7-0.4,1.5-1,1.5-1c-4.9,4.7-12.2,10.6-18.8,11c-2.2,0.1-4.7-1.5-5.7-3.7c-1.9-4.2-0.4-12.7,6.4-17.5c1.8-1.3,3.4-1.7,4.8-1.7
				H351.5z M340.1,80.7c0.1,2.4,1.4,3.7,1.9,4.1c-0.5-0.6-1.6-2.2-1.6-4.1c0.1-2.1,1.6-6.6,1.6-6.6S339.9,78,340.1,80.7z
				 M345.8,74.7c1.3,0.5,7.7-5,6.2-6.3h-0.2C349.9,68.4,344.7,74.3,345.8,74.7z M347.5,85.3c-0.2,1.1,7.1-3.7,6.7-3.8
				C352.8,82.8,347.7,85.5,347.5,85.3z M359.3,77.1"/>
			<path class="st0" d="M380.1,68.2c1.9,1.2,2.8,3,2.8,5c-0.9,5.2-5.3,8.6-8.2,10.6c1.9-0.3,3.9-0.6,5.9,0.6
				c0.6,0.1,8.4-6.5,13.4-9.7c0.6-0.3-5,4.1-4.5,3.8c0,0.7,7.6-5.6,7.7-5.6c0.3,0.2-15.7,12.3-15.4,12.6c3.7,4.4,1.6,15.3-2.4,23
				c-2.2,4.1-8.5,13.6-16.6,15.1c-6,1.1-10.1-3.7-8.4-10.1c2.9-10.4,19.5-24.3,24.5-27.9c-0.2,0-0.3-0.2-0.5-0.2
				c-3,2.1-5.8,4.6-7.8,6.5c-4.5,4.1-3.8,3.7-4.4,4.3c-0.6,0.9-1.5,1.5-0.2-0.1c5.4-5.7,10-9.1,12.3-10.7c-2.4-0.5-4.8,0.3-5.7,0.6
				c-2.3,0.6-2.9-2.3-2-3.2c2.4-2.4,11.5-7.1,9.8-11.3c-1.4-3.2-8.8,3-10.1,2.7c-2.9-0.6-2.6-2.9-1.3-3.7c2.3-1.4,5.3-3,8-3.1
				C378.1,67.4,379.1,67.6,380.1,68.2z M354.8,116.4c0.2,0.6,0.3-2.3,1.6-4.5c0.9-3.5,3.7-6.7,5.3-9c-0.7,2-0.8,1.5-4.1,6.9
				c0,0.1-0.1,0.2-0.1,0.2c3.8-6,11.4-15.3,22.2-24c-0.1,0-0.2-0.2-0.2-0.2C374.2,88.5,352,110.8,354.8,116.4z M369.3,96.8
				c-1.9,2.4-7.9,9.2-8.3,10c-0.4,0.9-0.6,1.1-0.6,0.7c-0.8,1.1-1.6,2.3-2.4,3.4c-0.7,1.1-1.2,2.3-1.6,3.4v1.7
				c-0.1-0.3-0.2-0.6-0.2-1c-1,3.7,0,7,4.3,6.7c2.9-0.2,5.5-1.9,10.8-7.1c4.8-5.4,13.7-21.3,9.1-28.2
				C376.6,89.4,372.9,93.2,369.3,96.8z M356.6,116.5c-0.1,0-0.2-0.2-0.2-0.5C356.5,116.2,356.6,116.4,356.6,116.5z M362.8,102.1
				c-0.5,0.5-0.7,0.8-0.6,0.5c0.1-0.3,2.6-3,2.6-3c0.1-0.1,0.2-0.1,0.2-0.1C365.1,99.5,363.5,101.4,362.8,102.1z M365.2,121.8
				c-0.9,0.2-1.4,0.5-1.5,0.6c-0.2,0.2,2.3-0.5,4.2-1.6c1.3-0.7,7.5-6.1,6.5-6.4C373.9,114.9,370.3,120.1,365.2,121.8z M376.4,108.7
				c-0.6,1.3-0.2,1.1,0,0.6c0.8,1.5-8.7,11.8-11.4,11.4c1.2,0.6,11.8-5.5,15.4-19.6c-1.1,2.4-1.9,5.7-3.7,7.9
				c-0.4,0.3-0.5,0,1.9-4.7c0.4-1.1,1.5-3.2,1.4-4.4C379.3,103.3,377.9,105.5,376.4,108.7z M372.9,113.9c0.6-0.4,2.8-3.9,2.8-3.9
				S372.4,114.3,372.9,113.9z M382.1,93.5c-0.3,2.5-0.3,2.4-0.6,3.8c-0.3,1.9-0.9,3.2-0.7,3.4c0.3,0.2,2.9-8.9,1-12.4
				C381.7,88.5,382.4,91.4,382.1,93.5z M380.8,84.6l0.2,0.1l3.8-3C382.7,83.2,382.8,82.9,380.8,84.6z M381.1,84.9l0.2,0.2l5.2-4.1
				C386.1,80.9,383.2,83.3,381.1,84.9z M385.9,80.8l-0.6,0.6c0,0,3.4-2.4,3.5-2.5C388.8,78.9,385.9,80.7,385.9,80.8z"/>
			<path class="st0" d="M456.9,37.2c0.2,0,0.3,0.1,0.5,0.1c-0.6-0.1-1.2,0-1.7,0c-1.7,0.1-3,0.5-4.1,0.9c-2.4,0.9-3.7,1.9-3.7,1.9
				c0.2,0,1.6-0.9,3.8-1.6c1.1-0.4,2.4-0.7,4-0.8c0.6,0,1.5,0,2.2,0.2c0.4,0.1,0.9,0.2,1.3,0.4c-0.7-0.8-0.1-0.3,0.6,0.2h-0.1
				l-0.5-0.2c0.2,0.2,0.6,0.6,1,1c0.2,0,0-0.3,0.3,0.3l-0.3-0.3c-0.1,0-0.4-0.1-0.7-0.2l-0.2-0.1c-1.3-0.6-2.4-0.6-3.5-0.6
				c-1.8,0.1-3.2,0.6-3.9,0.7c-0.4,0.1-0.6,0.2-0.6,0.2c0-0.1-0.5,0.1-1.1,0.5c-0.2,0.2-1.1,0.6-2.2,1.3c-1,0.6-2.1,1.5-3.2,2.3
				c0.2-0.2,0.6-0.4,0.9-0.6c0.7-0.4,1.5-0.9,2.5-1.5c1.1-0.6,2.3-1.3,3.7-1.8c0.1,0,0.2-0.1,0.2-0.1c1.2-0.4,2.5-0.7,3.8-0.8
				c1.2-0.1,2.4,0.2,3.6,0.6c0.6,0.3,1,0.4,1.1,0.4v0.1v-0.1c0.2-0.1-0.2-0.6-0.7-1.1c5.4,3.4,3.6,16.9,1.9,19.2
				c-0.6,0.6-3.1,0.6-4.2-0.8c-0.4-1.2-0.2-2.4,0.7-6.2c1.1-7.5-0.2-8.6-1.2-9.2c-1.1-0.6-3,0.1-4.7,1c-9.3,4.7-22.3,20.9-24.9,25.4
				c-6.4,8-11,23.6-5.9,29.1c4.1,4.6,14.7,1.7,23.6-4.3c8.6-5.8,17.3-14.4,15.6-18.4c-0.2-1-4.3,0.7-5.9,1.6c-0.2,0-0.4,0.2-0.6,0.2
				c-0.4,0-0.4,0.1-0.4,0.2c-0.1,0-0.3,0.1-0.4,0.1c-0.2,0-0.2,0.2-0.4,0.2c-0.3-0.1-0.4,0-0.6,0.3c-0.1,0-0.2,0.2-0.3,0.2l-0.2,0.1
				V77c0-0.1-0.3,0.1-0.6,0.3c-0.2,0.1-0.5,0.2-0.7,0.3l-0.5,0.2c0.1-0.2-0.1-0.1-1.1,0.4c-0.2,0.1-0.6,0.3-0.8,0.5
				c-0.8,0.4-1.3,0.5-0.2-0.2c0.3-0.2,0.6-0.4,0.8-0.6c0.4-0.3,0.6-0.6,0.6-0.6H449h-0.2c-0.1,0-0.2,0.1-0.4,0.2
				c-0.3,0.2-0.9,0.4-1.3,0.6c-1.5,0.9-2.9,1.8-2.8,1.6c0-0.1,1.7-1.2,4-2.5c0.2-0.2,0.6-0.2,0.8-0.4c1.4-0.9,5.4-3,5.3-3.2
				c-0.4-0.2-2.6,0.8-4.1,1.3c-1.2,0.2,5.6-3.6,7.4-3.5c2.9-0.9,6.7,0.2,7,4.5c0,4.3-4.1,10-10,15c-8.5,7.3-23.1,14.4-33.6,8.4
				c-3.2-2.3-6.6-7.7-6.1-11.4c0,0-0.1-0.1-0.1-0.2c-0.1-0.3,0.2-0.6-0.2-1.7c0.1-0.4,0.3-0.9,0.3-1.9c0.2-1.2,0.6-2.3,0.8-3.2
				c2.1-7.3,1.1-3.7-0.3,0.8c-0.2,0.6-0.5,1.3-0.6,1.9c0.5-4.3,1-6.3,3.7-11.8c0.8-1.6,1.7-3.2,2.6-4.8c0.2-0.5,0.6-1,0.9-1.5
				c0.6-1.1,1.3-2,2-3.1c0.5-0.7,1-1.4,1.5-2.1c0,0.1,0,0.1,0.1,0.1c0.2-0.1,0.1,0.3-0.1,0.9c-0.3,0.9-0.4,0.9-0.5,0.5
				c-0.1-0.4-0.3-0.2-1.2,1c-1.3,1.8-0.8,1.9,0.2,0.8c0.3-0.4-0.3,0.6-1.3,2.3l-0.1,0.1c-1,1.6-1.9,3.1-2.1,3.2
				c-0.6,0.4-2,3.1-2.6,4.8c-0.3,1.2,0,0.3,1-1.6c1.7-3.4,1.1-1.9,0.8-1.1c-1.5,3.6,0.2-0.2,2.4-4c0.2-0.4,0.6-0.8,0.7-1.1
				c1.5-2.4,1.9-2.6,1.9-2.4c0,0.2-0.4,0.8-1.5,2.7c-0.4,0.7-1.1,1.7-1.8,3c-0.8,1.4-1.9,3.5-2.9,5.8c-0.3,0.7-0.6,1.4-0.9,2.1
				c-1.6,4.2-2.1,7.5-2.3,9.2l0.2-1.2c0.5-2.2,1.1-4.5,2.4-7.8c0.1-0.2,0.2-0.6,0.3-0.8c1.8-4.5,4.1-8,5.4-10.1
				c1.9-2.9,3.1-4.2,3.2-4.3c0.3-0.2,0.5-0.3,0.3-0.4c-0.1-0.1,0.3-0.8,1.1-1.9c0.7-1,1.5-1.9,1.7-1.9c0.2,0,0.2-0.2,0.1-0.3
				c-0.2-0.2,0.1-0.6,1.1-1.7c0.2-0.2,0.4-0.5,0.6-0.8c1.5-1.7,1.9-1.9,1.5-1.5c-0.4,0.7-0.2,0.6,0.6-0.3c0.6-0.6,1.3-1.5,1.5-1.9
				c0.2-0.4,1.5-1.7,3.2-3.3c0.4-0.3,0.7-0.7,1.1-1c1-0.8,1.5-1.3,1.2-1.1c5.7-3.2,2.4-1.6,1.1-1.3c-1.1,0.9-1.9,1.5-2.3,1.8
				c-0.1,0.1-0.2,0.2-0.4,0.3c-1.3,1.1-4.3,3.9-3.9,3.8c0.5-0.2-0.4,0.6-1.2,1.1c-0.6,0.3-0.8,0.5-0.8,0.8c0,0.2-0.5,1-1.1,1.6
				c-0.2,0.2-0.4,0.5-0.6,0.6c-0.2,0.2-0.4,0.5-0.6,0.6c0.3-0.4,0.6-0.9,0.9-1.3c0.7-1.1,1.1-1.5-0.4,0.2c-0.4,0.4-0.7,0.9-0.9,1.1
				c-0.2,0.3-0.4,0.6-0.3,0.6c0.1,0.1,0.1,0.2-0.2,0.4c-0.2,0.1-0.7,0.6-1.1,0.9H429c0,0,0.6-0.7,1.6-2c0.5-0.6,1.1-1.3,1.7-2
				c2.3-2.5,4.4-4.7,4.5-5c0.1-0.2-0.4,0.1-1.1,0.7c-1.3,1.3-1.9,1.5-0.5-0.2v-0.1c0.6-0.6,1.4-1.3,2-1.9c0.1-0.1,0.2-0.1,0.3-0.2
				l1-0.7l0.1-0.1c0.8-0.6,1.5-1.3,2.3-2l-0.2,0.2h0.1c0.1,0,0.2-0.2,0.2-0.2c0.6-0.5,1.3-1.1,1.9-1.5c0,0-0.3,0.2,0.6-0.4
				c0.2-0.2,0.6-0.3,0.8-0.5c0.4-0.2,0.8-0.6,1.2-0.8c0.4-0.2,0.2-0.1-0.3,0.3c-3.4,2.3,1-0.1,0.7,0.1c1.1-0.6,1.3-1,1-1
				c-0.2,0-0.1-0.1-0.1-0.2c0.2-0.1,0.3-0.2,0.5-0.3c0.4-0.2,0.9-0.5,1.3-0.7c0.6-0.2,1.1-0.6,1.7-0.8c0.1,0,0.2-0.1,0.3-0.1
				c0.1,0,0.2-0.1,0.2-0.1c0.2-0.1,0.4-0.2,0.6-0.2c0.5-0.2,1.1-0.3,1.1-0.3c0,0,0.6-0.2,1.1-0.2c0.2,0,0.6-0.2,0.8-0.2
				c0.1,0,0.2-0.1,0.3-0.1h0.7h0.9H456.9z M416.9,88.5c0,0.2-0.1,0.5-0.1,0.8c0,1.6,0.2,0.8,0.2,0.8V89L416.9,88.5l0.1-0.3
				c0-0.1-0.1-0.2-0.1-0.2V88.5z M418.2,74.6c-0.4,0.9-0.4,1.1-0.2,0.8C418,75.2,418.2,74.9,418.2,74.6c0.2-0.2,0.3-0.5,0.4-0.6
				v-0.2C418.6,73.8,418.4,74,418.2,74.6z M426.5,60.9L426.5,60.9c0,0.2-0.2,0.4-0.2,0.6c-0.1,0.2-0.2,0.4-0.4,0.6
				c-0.3,0.3-0.3,0.2,0.1-0.4c0-0.1,0.2-0.2,0.2-0.2C426.4,61.1,426.6,60.9,426.5,60.9L426.5,60.9z M426.9,62.9
				c-0.4,0.6-0.8,1.1-0.8,1.2c0,0.2,0.5-0.5,1.2-1.5c0.7-1,1.3-1.9,1.3-1.9C428.5,60.8,427.6,61.9,426.9,62.9z M427.7,62.9
				c-0.9,1.3-0.6,1-0.6,1c0.2-0.3,0.6-0.8,0.8-1.1c0.2-0.3,0.5-0.6,0.6-0.9c0.1-0.1,0.1-0.2,0.1-0.2S428.3,62.1,427.7,62.9z
				 M432.8,52.6c-0.2,0.2-0.3,0.4-0.5,0.6c-1.4,1.5-1.9,2-1.2,1.1c0.5-0.7,0.9-1.2,1.2-1.6c0.3-0.4,0.6-0.6,1.1-1
				c0.1-0.1,0.2-0.2,0.2-0.2h0.1C433.8,51.4,433.5,51.8,432.8,52.6z M449.6,92.3c-0.2,0.1-0.3,0.2-0.6,0.4c-0.2,0.2-0.6,0.4-0.9,0.6
				c-0.9,0.6-1.5,1.1-1.3,1c-5.5,4.2-13.4,6.2-15.6,6.1c-0.7,0.2,1.5,0.5,7.6-1.4c4.9-1.9,7.5-4.2,7.5-4.2c0.5-0.3,0.8-0.5,1-0.6
				c0.4-0.2,1.2-0.7,1.9-1.2c0.4-0.3,0.7-0.6,0.6-0.6c-0.3,0,0.2-0.4,0.7-0.5c0.3-0.1,0.5-0.2,0.5-0.4c0-0.1,0.2-0.3,0.5-0.6
				C451,91.5,450.3,91.9,449.6,92.3z M431.4,56.6c-0.2,0.2-0.3,0.6-0.2,0.6c0.1,0.1,0.3-0.2,0.6-0.4c0.2-0.2,0.3-0.6,0.2-0.6
				C431.9,56.2,431.5,56.3,431.4,56.6z M438.2,85L438.2,85l-0.2,0.1c-0.1,0.1-0.3,0.2-0.4,0.2c-0.4,0.3-0.5,0.5-0.6,0.6H437h-0.1
				c0-0.1,0.2-0.2,0.4-0.4c0.4-0.4,0.7-0.8,0.7-0.9v-0.1c0,0,0.1,0.1,0.2,0.1c0.2,0.1,0.4,0,0.6-0.3c0.2-0.2,0.4-0.4,0.5-0.4h0.1
				C439.5,83.9,439.2,84.3,438.2,85z M440.4,45c-0.6,0.5-1.1,1.1-1.6,1.5c-0.6,0.6-1.2,1.1-1.2,1.2c-0.1,0.2,0.5-0.2,1.4-1
				c0.2-0.2,0.6-0.5,0.9-0.7c0.1-0.1,0.2-0.2,0.2-0.3c1.5-1.3,2.9-2.4,3-2.6C442.9,43.2,441.8,43.9,440.4,45z M441.6,81.7
				c-0.2,0.2-0.6,0.4-0.8,0.5c-0.5,0.2-0.4,0.2,0.6-0.6c0.3-0.2,0.7-0.6,1-0.7c0.2-0.2,0.6-0.3,0.6-0.3
				C443.2,80.6,442.3,81.2,441.6,81.7z M442.3,44.3c-1,0.7-1,0.9-0.6,0.6c0.2-0.2,0.6-0.5,0.9-0.6c0.2-0.2,0.5-0.4,0.6-0.6
				c0.1-0.1,0.2-0.1,0.2-0.1S442.9,43.8,442.3,44.3z M442.9,80.1c-0.3,0.2-0.5,0.4-0.3,0.3c0.1,0,0.2-0.1,0.3-0.2
				c0.1-0.1,0.2-0.2,0.3-0.2l0.1-0.2C443.3,79.8,443.2,79.9,442.9,80.1z M443.6,80c-0.2,0.1-0.2,0.2-0.2,0.3s0.2,0,0.3-0.1
				c0.2-0.1,0.2-0.2,0.2-0.2l-0.1-0.1C443.7,79.9,443.6,80,443.6,80z M446.1,79.3c0.2,0.2-0.2,0.6-0.7,1l-0.2,0.1
				c-0.1,0-0.1,0.2-0.2,0.2c-0.3,0.2-0.6,0.2-0.7,0.1c-0.1-0.1,0-0.2,0.2-0.3v-0.1c0.2-0.1,0.3-0.1,0.3,0c0.1,0.2,1.1-0.5,1.1-0.7
				C445.9,79.4,446,79.3,446.1,79.3L446.1,79.3z M451.8,76c0.2,0.1,0.1,0.2-0.1,0.3s-0.2,0.2,0,0.2s0.1,0.1-0.2,0.1
				s-0.5,0.2-0.5,0.2s-0.1,0.2-0.2,0.2s-0.2,0-0.2-0.1c0.2-0.3-0.6,0.1-1,0.6c-0.1,0.1-0.2,0.2-0.2,0.3l-0.1,0.1h-0.1
				c0-0.1,0-0.2,0.2-0.3s0.2-0.3,0.2-0.5c0-0.2,0.3-0.5,0.6-0.6c0.2-0.1,0.5-0.2,0.6-0.1c0.2,0.1,0.3,0,0.4-0.2
				c0.1-0.2,0.2-0.2,0.2-0.2C451.6,76,451.8,76,451.8,76z M450,76c0,0.1,0.2,0.1,0.3,0C450.8,75.5,450.2,75.6,450,76L450,76z
				 M451.7,91.5l0.2-0.1c-3.1,2.9,5.4-5.4,5.4-5.4c-2.4,2.8-2.4,3.1-5.4,5.2L451.7,91.5z M452.2,90.6c-0.1,0.1-0.2,0.2-0.2,0.3
				c-0.5,0.5-0.6,0.6,0.2,0C452.8,90.4,453.4,89.6,452.2,90.6z M452.2,89.8c-0.1,0.1-0.3,0.2-0.3,0.2c0-0.1,0.1-0.2,0.2-0.3
				c0.1-0.1,0.2-0.2,0.3-0.2C452.4,89.6,452.3,89.8,452.2,89.8z M453.1,75.9c-0.2,0.2-0.3,0.2-0.5,0.3c-0.2,0.1-0.5,0.1-0.4-0.2
				c0-0.1,0-0.2,0.1-0.2h0.2C452.8,75.8,453.5,75.3,453.1,75.9L453.1,75.9z M455.5,87.2c1.9-1.1,5.8-5,6-8
				C461.3,81.5,456.7,85.4,455.5,87.2z M462.1,48.3c-0.2,2.1-0.7,6.3-0.7,6.3c0.6,0.2,1.9-8.8,0.6-11.5c-0.2-0.5-0.4-0.8-0.5-0.8
				C461.3,42.3,462.3,46.6,462.1,48.3z"/>
			<path class="st0" d="M484.2,64.7c3.5,0.4,5.1,4.3,4.8,6c-0.6,2.4-2.4,4.5-5.8,6.7c-3.1,2.1-6.5,1.1-6.5,1.1
				c-1.4,1.7-1.8,6.2,1.5,6.3c3.4,0.1,10.1-4.8,13.8-7.8c-1,0.9-2.2,1.9-3.7,3.4c-0.8,0.7-0.9,0.8,4.1-3.1c3.8-2.8,8-6.5,2.1-1.4
				c-5.9,5.4,14.3-11.7,2.2-0.8c8.5-6.6,2.1-1.1,1.4-0.1c-2.5,2.2-2.3,1.9-3.7,2.9c-0.2,0.2-2.6,1.9-1.7,1.5c0.6-0.3,1.3-0.8,2.7-2
				c0.7-0.4,1.5-1,1.5-1c-4.9,4.7-12.2,10.6-18.8,11c-2.2,0.1-4.7-1.5-5.7-3.7c-1.9-4.2-0.4-12.7,6.4-17.5c1.8-1.3,3.4-1.7,4.8-1.7
				H484.2z M472.8,80.7c0.1,2.4,1.4,3.7,1.9,4.1c-0.5-0.6-1.6-2.2-1.6-4.1c0.1-2.1,1.6-6.6,1.6-6.6S472.6,78,472.8,80.7z
				 M478.5,74.7c1.3,0.5,7.7-5,6.2-6.3h-0.2C482.6,68.4,477.4,74.3,478.5,74.7z M480.2,85.3c-0.2,1.1,7.1-3.7,6.7-3.8
				C485.5,82.8,480.4,85.5,480.2,85.3z M492,77.1"/>
			<path class="st0" d="M518.2,66.6c1.5,1.5-3.3,3-3.3,3c-1.1,0.1-1.1-1.5-0.6-2.3c0.4-0.6-0.7-1.3-6.1,1.6
				c-5.1,2.7-7.5,5.6-7.1,7.1c0.7,2.6,6.2,1.1,11.5,3.4c0.1,0.1,0.3,0.2,0.4,0.2c1.7-1.2,9.1-5.5,11.8-6.6c-0.4,0.4-0.9,0.8-1.4,1.1
				c-1.5,1-2.8,1.3-3.7,2.1c3.1-1.6,6.2-3.4,6.7-3.7c1.1-0.5-1,1.3-2.9,2.3c0.3-0.1,0.5-0.2,0.6-0.2c0.2,0.3-8.4,5.2-9.7,6.3
				c1.9,2.2,4.6,11.1-4.7,18.7c-1.9,1.5-8.4,5-13.1,4.1c-4.7-1-5.3-4.7-2.8-8.5c1.4-2.1,3.7-4.5,6.5-7.1c12.3-9.2,1.1-0.1,5.6-3.7
				c-1.7,1.5-2.6,1.6-6.2,5.1c0.1,0,5.8-4.5,7.5-5.7c0.7-0.5,1.5-1,2.4-1.5c0.8-0.6,1.9-1.2,1.9-1.3c0-0.1-0.2-0.2-0.2-0.2
				c-0.6,0.2-5.6,3.2-0.2-0.2c-0.2-0.1-0.4-0.2-0.6-0.3c-3.1-1.8-9.7-1.3-12.3-3.9c-4.3-4.6,5.4-10.5,8.9-11.8
				c1.1-0.4,2.8-0.6,4.5-0.6C514.2,64,517.3,64.6,518.2,66.6z M499.4,92.4c-3.2,3-6.6,9.1-2.4,9.2c1.5,0,4.5-0.8,6-1.6
				c5.3-3,13.3-13,9.2-17.8C508.2,85.3,503.4,88.8,499.4,92.4z M496.5,92.7c0.3-0.1,2.1-2.4,2.1-2.4S496.2,92.7,496.5,92.7z
				 M497.7,93.4c-0.5,0.7,1.3-1.3,3.2-3c1.7-1.5,3.9-3,5.9-4.6C506.2,85.9,498.8,91.6,497.7,93.4z M498.4,102
				c-0.2,0.4,2.6,0.2,3.8-0.6l0.5-0.2C502.6,101.3,498.7,102.4,498.4,102z M501.8,70.8c-1.4,1.3-1.1,1.5-0.6,1
				c0.5-0.7,4.9-3.9,4.9-3.9C506.3,67.7,503.8,69,501.8,70.8z M513.4,90.2c-0.1,0.1-0.2,0.2-0.2,0.3
				C513.1,90.7,513.3,90.6,513.4,90.2c-1.7,3.1-3.6,6-4.7,6.2c-0.1,0.7-1.5,1.7-2.8,2.4c1-0.3-0.6,0.8,0.3,0.5
				c0.6,0-2.5,1.8-4.2,2.5c0.3-0.2,1.8-0.5,2.9-1.4c1-0.7,1.4-0.7,2.1-1.3c-1.1,0.3,0.2-0.6,0.4-0.8c1.2-1.3,2.8-2.4,3.6-4.1
				c0.2-0.5,0.9-1.1,1.1-1.5C513.4,91,513.9,89.8,513.4,90.2c0.3-0.6,0.9-1.7,0.4-2.4C513.9,88.5,513.8,89.3,513.4,90.2z
				 M509.5,82.8c0.5-0.2,0.4-0.1-0.1,0.2c-0.2,0.2-0.4,0.2-0.4,0.2h-0.1c-0.1,0-0.5,0.3-0.9,0.5c-0.4,0.2-0.6,0.4-0.6,0.4
				c0.1,0,0.2,0.1,0,0.2c-0.1,0-0.2,0.1-0.4,0.2c-0.5,0.2-1,0.9-1.6,1.2c-0.4,0.1-2,1.5-2.7,2c-0.7,0.6-0.6,0.6-0.1,0.2
				c0.3-0.2,0.5-0.2,0.3-0.2c-0.2,0.1-0.1,0.1,0.2-0.1c2.5-1.5-0.7,0.2,1.9-1.5c0,0,0.1,0,0.1-0.1c0-0.1,0.4-0.4,0.7-0.6
				c0.5-0.3,0.6-0.3,0.2-0.1c-0.3,0.2-0.2,0.3,0.1,0.1c0.9-0.6-0.1,0-0.9,0.6c-0.3,0.2,2-1.3,3.7-2.5l-0.1,0.1l0.2-0.2
				c1.5-1,2.3-1.6,0.4-0.3c0.2-0.2,0.7-0.6,1.1-0.8c0.3-0.2,1-0.7,0.9-0.7v-0.1C511.4,81.5,510,82.4,509.5,82.8z M505.1,99.7
				c-0.2,0.1-0.7,0.6-0.8,0.6c-0.6,0.4-0.7,0.5-1.2,0.7C503.9,100.7,505.7,99.7,505.1,99.7L505.1,99.7z M510.8,66.7
				c-4.5,1.7-9.1,4.7-7,4.1c-0.2,0.1,1.8-1.2,3.2-2.1c1.3-0.8,5.2-2.2,5.2-2.2c0.1,0,0.1-0.1,0-0.1
				C512.1,66.4,511.3,66.5,510.8,66.7z M509.1,82.7c-0.2,0-0.5,0.2-0.8,0.5c-0.2,0.2-0.5,0.4-0.6,0.5c-0.1,0.1-0.2,0.2-0.5,0.2
				c-0.1,0-0.2,0.1-0.2,0.1c-0.2,0.1-0.5,0.5-0.1,0.2c0.2-0.1,0.2-0.1,0.2,0c-0.1,0.1-0.1,0,0.1-0.1l0.2-0.2
				c0.2-0.2,0.5-0.3,0.5-0.3s0.2-0.1,0.4-0.2c0.2-0.1,0.2-0.2,0.1-0.2c-0.6,0.2,1.8-1,1.6-1C510,82.4,509.6,82.4,509.1,82.7z
				 M507.8,84.2c-0.1,0.1-0.2,0.2-0.3,0.2c-0.2,0.1-0.5,0.3-0.6,0.4l-0.1,0.1c-0.1,0.1-0.2,0.1-0.1,0c0.1-0.1,0.4-0.3,0.6-0.5
				c0.1,0,0.2-0.2,0.2-0.2C507.7,84.2,507.8,84.2,507.8,84.2c0.2-0.1,0.2-0.2,0.2-0.2S508,84.2,507.8,84.2z M512.6,93.1
				c-0.6,1.1-1.3,2-2.3,3.2c-1.2,1.4-3.2,2.9-2.8,2.8c1.9-0.8,6.7-7.1,6.5-8.4C514,90.6,513.4,91.8,512.6,93.1z M507.8,83.1
				c-0.2,0.1-0.2,0.2-0.2,0.2L507.8,83.1l0.3-0.2L507.8,83.1z M509.6,83.1L509.6,83.1c-0.3,0.2-0.5,0.4-0.6,0.5
				c0.1,0,0.2-0.2,0.2-0.2C509.2,83.3,509.4,83.2,509.6,83.1z M513.3,80c0,0.2,3.7-2.3,5.2-3.2C517.4,77.3,513,79.9,513.3,80z
				 M513.4,90.3L513.4,90.3L513.4,90.3z M513.9,80.6c1.5-0.7,4.8-3.1,7-4.3c0.7-0.5,1-0.8,1-0.8C521.6,75.5,514.8,80.1,513.9,80.6z
				 M523.9,74.7L523.9,74.7L523.9,74.7z"/>
			<path class="st0" d="M528.2,74.2c-1.6,1-5.4,8.4-3.4,8.4c2.8-0.4,5.9-5,8.8-7.4c2.8-2.5,5.3,0.2,5.5,2.8c0.3,3.4,0.5,3.9,1.2,4
				c4.1-0.6,10.2-5.5,13.6-8.4c1,0.6-7.7,6.2-7,6c0.9-0.3,2.6-1.5,4.6-3.2c0.2-0.2,1.6-1.8,1.4-1.2c-0.5,1.1,1.9-1.5,2.8-2.4
				c1.1-0.6-1.5,3.2-3,4.6c-3.9,3.7-10.4,8.6-13.9,6.4c-2.5-1.6-3.4-5.1-3.4-5.1s-7.2,7.6-10.1,6.7s-4.5-2.6-3.9-5.6
				c0.3-1.7,2.3-5,3.5-6.8c0.2-0.5,0.8-0.7,1.4-0.7C527.7,72.2,529.1,73.1,528.2,74.2z M545.6,81.6c0,0-0.2,0.8,3.7-2.2
				c1.3-0.9,3.5-3.1,3.7-3.4l-4.3,3.2C548.5,79.5,545.6,81.6,545.6,81.6z"/>
			<path class="st0" d="M569.8,71.4c0,0.2-0.1,0.6-0.2,0.7c1.3,0.1,2.4,1.2,2.1,2.6c-0.2,1.5-4.6,11.8-3.3,11.3
				c4.6-2.1,7.1-4.7,11.5-7.5c0.7-0.4-2.1,2.2-1.9,1.8c-3.2,2.2,6.1-3.9,6.8-4.6c1.2-1,5.4-3.7,5.4-3.7c-0.6,0.3-1.7,1.2-3.5,2.6
				c-0.5,0.4-2.1,1.7-3.9,3.3c-1,1.1,2.7-1.5,3.7-2.5c0.8-0.8,2.5-2.1,2.5-2.1c-2.5,2.9-3.8,3.2-6.1,5.4c-0.3,0.2-0.7,0.5-0.7,0.6
				c0.2-0.2,0.2,0-0.4,0.6c-0.2,0.2-0.6,0.5-0.9,0.7c0.2-0.2,0.6-0.5,0.9-0.6c0.2-0.1,0.5-0.4,1-0.8c1.5-1.1,3.6-2.8,5.6-4.5
				c0.8-0.7,1.4-1.2,1.6-1.5c-0.3,0.3,0.8-0.6-1.1,1.3c-0.1,0.1-0.3,0.2-0.4,0.3l-0.1,0.1c-0.1,0.1-0.2,0.2-0.3,0.2
				c-0.2,0.2-0.2,0.4-0.2,0.6c-0.2,0.2-0.4,0.3-0.6,0.5c-0.1,0.1-0.3,0.2-0.4,0.3c-0.1,0.1-0.2,0.2-0.3,0.2
				c-0.1,0.1-0.2,0.2-0.2,0.2c-1.1,0.9-2.3,1.8-3.2,2.6c-4.3,3.6-8,7.4-13,9.3c-2.4,1-6.5-0.9-6.2-4.5c0.2-2.3,1.2-4.9,1.9-7.4
				c-1.6,0.6-7.8,11.4-14,7.1c-3.2-2.2-1.9-8.9,2.5-13.7c2.3-2.4,6-3.8,9.3-3.8C566.9,66.7,569.6,68.1,569.8,71.4z M554.9,81.4
				c4.1-1.7,8-7.7,13.6-9.1c-0.2-0.1-0.4-0.2-0.5-0.4c-1.1-1-2.2-1.4-3.3-1.4C558.5,70.4,552.2,81.9,554.9,81.4z M555.6,82.2
				c2.5-0.6,6.8-4.7,9.9-7.5C562.1,76.6,558.7,80.9,555.6,82.2z M567,85.2c0-0.8,0.4-2.6,0.9-4.3c0.6-2.2,2.4-6.2,2.1-6.1
				C568.5,77.7,566.7,82,567,85.2z M580.2,79.5l-3.9,2.9c0.1,0,3.7-2.5,4.7-3.3c0.6-0.5,1.1-0.9,1.1-0.9
				C581.9,78.2,581.1,78.8,580.2,79.5z M586.4,77.2c-0.1,0.1-0.3,0.2-0.4,0.2c-0.1,0.1-0.2,0.2-0.3,0.2c-0.1,0.1,0,0.1,0.1,0
				l0.1-0.1l0.1-0.1h0.1l0.1-0.1C586.2,77.3,586.3,77.2,586.4,77.2L586.4,77.2L586.4,77.2z"/>
			<path class="st0" d="M616.5,35.2c2.4,8.3-23.1,40-27.5,41.2c-1.1,2.4-3,10.1-1.3,11.4c2.9,2.2,9-3.4,12.5-6.5
				c0.1-0.1,0,0.2-0.2,0.5c-0.2,0.3-1.5,1.6,1.3-0.5c0.6-0.2,0.8-1.3,1.6-1.5c1-0.6,1.1-0.7,1-0.8c-0.2-0.4,3.5-2.2,3.9-3
				c5.4-3.6-8.2,9-11.9,11.4c5.5-2.9,10.6-9.6,10.8-8.6c0.3-0.5,0.6-0.9,0.9-1h0.2c0,0,0.1,0.1,0,0.2c-0.1,0.2-0.2,0.3-0.3,0.5
				c0.2-0.1,0.2-0.3,0.4-0.4c1.4-1.3,1.5-1.5,1-0.6l-0.8,0.8c-0.6,0.6-1.2,1.1-1.8,1.7c-0.2,0.3-0.5,0.6-0.6,0.7
				c-4.1,4.2-9,9.2-14.8,10c-4,0.6-6.2-1.5-6.7-5.4c-0.6-5,2.1-11.4,3.2-14.8c4-10.6,7.8-18.9,14.9-28.3c3.2-4.3,6.8-9.4,10.9-9.7
				h0.2C614.2,32.5,616,33,616.5,35.2z M586.9,87.2c0,0-1-0.2-0.5-4.8c0.2-2.2,0.6-2.6,0.9-4.8C585.2,83.9,586.2,87.6,586.9,87.2z
				 M587.9,72.1c0,0.2-0.1,0.2-0.1,0.4c-0.4,1.1-0.6,1.9-0.6,2c0.2,0.2,0.4-0.3,0.6-2c1.5-3.8,5-11.8,5-11.8S588.2,70,587.9,72.1z
				 M589,72.2c0.4-0.4,1.5-4.7,4.2-10.8c1.1-2.3,2.9-5.2,4.4-8.5c2.5-4.7,6.7-10.8,7.9-12.3C597.6,49,587.6,73.8,589,72.2z
				 M592,66.6c-0.7,1.6-1.9,4.9-1.9,5l4.5-10.4C591.3,67.6,592.9,64.7,592,66.6z M596.5,59.2c-1.1,1.9-3.5,7-5.8,12.3h0.1
				c6.2-4.3,28-36.2,23.1-35.8h-0.3C610.4,35.7,600.4,51.8,596.5,59.2z M595.3,69c0.6-0.4,6.7-8.2,6.8-8.6
				C602.2,60.4,594.8,69.4,595.3,69z M596.7,85.5c2.1-1.5,6.2-5.5,8.4-6.8C603.5,81,598.5,84.2,596.7,85.5z M600.3,50.2
				c-0.6,0.8-2,3.4-3.1,5.4c1.5-2.5,3.7-6.1,3.7-6.1l0.2-0.2C601.1,49.3,600.9,49.5,600.3,50.2z M597.6,67.3c1.8-1.5,7-9.3,5.2-6.9
				C602.8,60.5,596.9,68.1,597.6,67.3z M607.4,52.2c0.1,0-7.4,9.8-6.9,9.5C602,60.5,607.7,52.1,607.4,52.2L607.4,52.2z M601,80.5
				c1.6-1.5,3.7-3.2,5.6-4.8c0.2-0.2,0.3-0.2,0.3-0.2C604.3,78.6,603.1,79.2,601,80.5z M601.8,48c-2.7,4.2,7.2-11.4,10.2-12.9
				c0,0-0.1-0.1-0.2-0.1C610.6,35,603.5,43.8,601.8,48z M615,38.6c0.4,0.6-2,6.2-5,10.8c-4.5,7.1-8.9,11.8-6.5,10
				c7.3-9.4,12.7-20.9,11.8-21C615.3,38.4,615.1,38.5,615,38.6z M608.8,76.4c-0.2,0.2-0.5,0.2-0.5,0.2s0.2-0.2,0.3-0.4
				c1.6-1.6,2.4-2.4,2.4-2.4S610.4,74.7,608.8,76.4z M608.4,77.2c-0.2,0.1,0-0.2,0.3-0.5l0.1-0.1C608.7,76.8,608.5,77,608.4,77.2z
				 M608.9,76.6L608.9,76.6c1.3-1.7,2.4-2.8,2.6-2.8C611.6,73.8,611,74.6,608.9,76.6z"/>
			<path class="st0" d="M649.5,25.1c2.9,9-20.9,45.7-25.2,47.3c-1,2.7-2.3,11.3-0.6,12.7c1.7,2.4,6.8-1.1,10.3-4.8
				c2-1.9-1.1-0.2,2-1.9c0.6-0.2,0.8-1.5,1.6-1.7c0.9-0.7,1-0.9,0.9-1c-0.2-0.5,3.3-2.6,3.7-3.5c5.1-4.3-7.6,10.4-11.2,13.2
				c5.3-3.5,10.1-11.3,10.2-10.1c0.3-0.6,0.6-1.1,0.8-1.1h0.2v0.2c-0.1,0.2-0.3,0.4-0.4,0.6c0.2-0.2,0.3-0.2,0.5-0.4
				c1.3-1.5,1.3-1.9,0.9-0.9c-0.3,0.3-0.6,0.7-0.8,1c-0.5,0.6-1,1.3-1.5,2c-0.2,0.3-0.6,0.7-0.7,0.9c-3.9,5-7.7,9.4-13.4,10.6
				c-4,0.9-6.2-1.3-6.9-5.7c-0.2-1.5-0.3-3.2-0.2-4.9c-2.5,3.1-5.4,5.8-7.8,6.6c-3.2,1-5.5,0.1-6.2-4.1c-0.4-2.4,1.9-8.4,7.2-11.5
				c2.4-1.4,5.8-1.1,8.4,0.6c0.3-1.3,0.6-2.4,0.8-3.3c3.4-11.9,6.7-21.4,13.1-32.2c3-5,6.3-10.9,10.4-11.4h0.2
				C646.9,22.1,648.8,22.6,649.5,25.1z M616.4,70.4c-3.6,1.3-5.8,5.3-6.7,8c-1.1,2.8-0.2,4.4,3.4,1.5c2.7-2.3,4.6-4.1,7-6.6
				C620.3,71.8,617.9,69.8,616.4,70.4z M611.7,81.7c-1.5,1.7,5.3-2.1,8.6-6.7C618.7,76.8,612.6,82.1,611.7,81.7z M622.9,84.4
				c0,0-1-0.2-0.7-5.3c0.1-2.5,0.4-2.8,0.6-5.4C621,80.9,622.1,84.9,622.9,84.4z M622.9,67.6v0.6c-0.3,1.3-0.5,1.6-0.5,1.7
				c0.2,0.3,0.3,0.2,0.5-1.7c1.3-4.3,4.2-13.5,4.2-13.5S623.1,65.2,622.9,67.6z M623.7,69.1c0.3-0.5,1.5-6.7,4-13.6
				c0.9-2.6,2.7-6.1,3.9-9.8c2.3-5.4,6-12.3,7.1-14C631.3,41.5,622.3,70.9,623.7,69.1z M626.8,61.3c-0.6,1.8-2,6.3-2,6.4l4.3-12.5
				C626.1,62.5,627.6,59.1,626.8,61.3z M646.5,25.6c-3.1,0.2-12.3,18.7-15.7,27.1c-1,2.3-3.2,8-5.1,14l0.2-0.1
				c5.9-5.1,25.8-41.6,20.9-40.9C646.6,25.7,646.6,25.6,646.5,25.6L646.5,25.6z M630.2,63.8c0.6-0.5,6.2-9.6,6.3-10
				C636.5,53.8,629.6,64.3,630.2,63.8z M634.1,42.6c-0.6,0.9-1.9,3.9-2.8,6.2c1.4-2.9,3.4-7,3.4-7l0.1-0.2
				C634.8,41.5,634.6,41.8,634.1,42.6z M631.8,83.3c2-1.7,5.9-6.4,8-8C638.2,77.8,633.6,81.7,631.8,83.3z M637.1,53.8
				c0,0.1-5.4,8.8-4.7,7.9c1.5-1.5,5.2-8.4,5.1-8.4C637.5,53.2,637.4,53.4,637.1,53.8z M641.3,44.4c0.1,0-6.8,11.3-6.3,11
				C636.3,54,641.5,44.3,641.3,44.4L641.3,44.4z M635.4,40.2c-2.4,4.9,6.5-13.1,9.4-15c0,0-0.1-0.1-0.2-0.1
				C643.5,25.1,637,35.4,635.4,40.2z M648.1,28.9c0.4,0.6-1.7,7.1-4.3,12.3c-4.1,8.1-8.2,13.6-5.9,11.4c6.7-10.9,11.4-24,10.6-24.1
				C648.3,28.6,648.3,28.7,648.1,28.9z M643.3,72.5c-0.2,0.2-1.1,1.3-1.1,1.3s0.7-1.2,0.9-1.5C643.4,72.1,645.3,69.8,643.3,72.5z"/>
			<path class="st0" d="M645.2,70.4c1.5,0.1,3.1,1.9,1.7,3.4c-0.6,1.4-7.9,11.7-3.5,11c5.4-2.7,12.2-7.1,17.1-11
				c-4.6,4.5-7.4,5.7-7.7,6.1c-0.2,1.1,9.2-6.5,9.9-7.5c2.1-1.6,1.1-0.6,1.1-0.5c0.1,0.3-8.4,7.1-0.2,0.8c-0.2,0.2-5.1,4.5-5.5,4.9
				c0.6-0.5,3.7-2.6,5-3.6c-2.8,3.1-12.9,12.1-18.7,13.1c-3.2,0.5-5.3-1.3-5.8-3.2c-0.6-2.8,0.4-6,1.6-8.8c0.1-0.3,0.2-0.5,0.2-0.6
				c0-0.2,0.2-0.2,0.2-0.2s0.2-0.2,0.3-0.6c0.2-0.4,0.4-0.8,0.4-0.8c1.5-1.9,1.9-1.9,3-2.4c0.2-0.1,0.4-0.1,0.6-0.1H645.2z
				 M639.4,82.6c0-3.1,4.5-11.8,3-9.2C641.1,75.1,638.8,80.9,639.4,82.6z M650.9,60.7c0.9,0.4,3.2,3.4-3,5.8
				c-2.8,1.1-0.8-1.9-0.9-3.1c-0.1-1.7,1.8-2.9,3.2-2.9C650.4,60.5,650.7,60.6,650.9,60.7z M651,83.3c-0.2,0.2,0.9-0.3,4.2-2.9
				l2.2-1.9C657,78.7,651.3,83.1,651,83.3z M663.2,74C663.9,73.4,663.7,73.6,663.2,74L663.2,74z"/>
		</g>
		<path class="st0" d="M292.7,61.2c0,0,0.1-0.3,0.2-0.7c0.4-0.7,0.6-1.7,1.6-2.8c0.1-0.4,0.1-0.7,0.1-0.7c0.4-1.1,1-1.7,1.2-2.8
			c0,0,0,0,0.3,0c0.1-0.3,0.1-0.3,0.1-0.3c0.8-0.3,1.1-0.3,1.4,0c0.3,0,1,0.3,1.3,0.3c0.3,0.4,0.2,0.7,0.1,1.1
			c-0.1,0.3-0.1,0.6-0.1,0.6c-0.1,0.7-0.9,1.4-1,1.8c-0.6,1.1-1.1,1.7-2,2.8c-0.4,0.7-0.9,1.4-1.4,2.1c-0.3,0-0.4,0.3-0.8,0.3
			l-0.3,0c-0.4,0-0.4,0-0.7-0.3c0,0-0.3,0-0.3-0.4C292.6,62.2,292.7,61.5,292.7,61.2z"/>
	</g>
</g>
</svg>
